<svg width="43" height="43" viewBox="0 0 43 43" fill="none" xmlns="http://www.w3.org/2000/svg">
<mask id="path-1-inside-1_121_2023" fill="white">
<path d="M21.5002 3.58325L3.5835 12.5416L21.5002 21.4999L39.4168 12.5416L21.5002 3.58325ZM3.5835 30.4583L21.5002 39.4166L39.4168 30.4583M3.5835 21.4999L21.5002 30.4583L39.4168 21.4999"/>
</mask>
<path d="M21.5002 3.58325L3.5835 12.5416L21.5002 21.4999L39.4168 12.5416L21.5002 3.58325ZM3.5835 30.4583L21.5002 39.4166L39.4168 30.4583M3.5835 21.4999L21.5002 30.4583L39.4168 21.4999" fill="black"/>
<path d="M21.5002 3.58325L21.9474 2.68882L21.5002 2.46522L21.0529 2.68882L21.5002 3.58325ZM3.5835 12.5416L3.13628 11.6472L1.34743 12.5416L3.13628 13.436L3.5835 12.5416ZM21.5002 21.4999L21.0529 22.3943L21.5002 22.618L21.9474 22.3943L21.5002 21.4999ZM39.4168 12.5416L39.864 13.436L41.6529 12.5416L39.864 11.6472L39.4168 12.5416ZM21.5002 39.4166L21.0529 40.311L21.5002 40.5346L21.9474 40.311L21.5002 39.4166ZM21.5002 30.4583L21.0529 31.3527L21.5002 31.5763L21.9474 31.3527L21.5002 30.4583ZM21.5002 3.58325L21.0529 2.68882L3.13628 11.6472L3.5835 12.5416L4.03071 13.436L21.9474 4.47768L21.5002 3.58325ZM3.5835 12.5416L3.13628 13.436L21.0529 22.3943L21.5002 21.4999L21.9474 20.6055L4.03071 11.6472L3.5835 12.5416ZM21.5002 21.4999L21.9474 22.3943L39.864 13.436L39.4168 12.5416L38.9696 11.6472L21.0529 20.6055L21.5002 21.4999ZM39.4168 12.5416L39.864 11.6472L21.9474 2.68882L21.5002 3.58325L21.0529 4.47768L38.9696 13.436L39.4168 12.5416ZM3.5835 30.4583L3.13628 31.3527L21.0529 40.311L21.5002 39.4166L21.9474 38.5222L4.03071 29.5638L3.5835 30.4583ZM21.5002 39.4166L21.9474 40.311L39.864 31.3527L39.4168 30.4583L38.9696 29.5638L21.0529 38.5222L21.5002 39.4166ZM3.5835 21.4999L3.13628 22.3943L21.0529 31.3527L21.5002 30.4583L21.9474 29.5638L4.03071 20.6055L3.5835 21.4999ZM21.5002 30.4583L21.9474 31.3527L39.864 22.3943L39.4168 21.4999L38.9696 20.6055L21.0529 29.5638L21.5002 30.4583Z" fill="#2563EB" mask="url(#path-1-inside-1_121_2023)"/>
</svg>
