<svg width="71" height="71" viewBox="0 0 71 71" fill="none" xmlns="http://www.w3.org/2000/svg">
<g clip-path="url(#clip0_48_61)">
<path d="M39.8066 22.5111C38.229 24.3413 38.4338 27.1038 40.264 28.6813C42.0942 30.2589 44.8567 30.054 46.4342 28.2238L53.0619 33.9366C53.672 34.4625 53.7403 35.3833 53.2144 35.9934L46.5495 43.7257C46.0237 44.3358 45.1028 44.4041 44.4928 43.8782L42.2824 41.973L34.6665 50.8109C34.1406 51.421 33.2198 51.4892 32.6097 50.9634L19.3544 39.5379C18.7443 39.012 18.676 38.0912 19.2019 37.4811L26.8188 28.6421L24.6097 26.7399C23.9996 26.214 23.9313 25.2932 24.4572 24.6831L31.1221 16.9508C31.6479 16.3408 32.5688 16.2725 33.1788 16.7983L39.8066 22.5111ZM50.054 35.1926L46.2795 31.9392L46.2218 31.9687C43.7887 33.1101 40.8274 32.8492 38.6037 31.092L38.3597 30.8905C36.1122 28.9533 35.3353 25.9437 36.134 23.2735L36.1535 23.2111L32.3801 19.9586L27.6195 25.4817L30.9329 28.3358L22.3621 38.2798L33.4094 47.802L41.9772 37.8593L45.2934 40.7157L50.054 35.1926Z" fill="black" fill-opacity="0.6"/>
</g>
<circle cx="35.2586" cy="35.2586" r="24" transform="rotate(40.7598 35.2586 35.2586)" stroke="black" stroke-width="2"/>
<defs>
<clipPath id="clip0_48_61">
<rect width="35" height="35" fill="white" transform="translate(32.7236 10.6299) rotate(40.7598)"/>
</clipPath>
</defs>
</svg>
