<svg width="428" height="400" viewBox="0 0 428 400" fill="none" xmlns="http://www.w3.org/2000/svg">
<path d="M368.758 200.453C385.607 188.461 401.733 175.646 403.598 157.671C409.768 112.4 338.268 158.102 346.275 71.3806C358.693 -14.6454 314.801 25.3827 248.695 57.5643C232.897 65.3373 219.443 70.3516 208.394 72.8457C199.347 59.8885 190.024 47.1028 180.154 35.1076C180.64 34.2729 181.142 33.4318 181.676 32.5759C190.061 19.2201 182.791 16.7636 167.912 21.0184C165.681 18.5979 163.406 16.2188 161.088 13.8824C136.424 -11.462 130.015 2.31677 129.321 38.3448C101.659 53.8484 71.3964 76.8425 57.6143 96.9586C53.5751 102.83 56.2799 109.478 60.9267 117.56C46.1353 119.874 32.6112 124.864 25.1828 138.419C5.93892 174.553 54.2349 176.118 55.5122 222.224C51.4762 227.544 46.831 233.121 41.4949 238.99C-12.9849 299.739 10.5858 321.163 43.1348 312.078C52.1067 339.443 92.4599 326.434 142.714 325.313C211.76 323.91 236.505 352.579 210.551 381.304C184.58 410.631 307.073 402.018 341.463 374.99C350.197 368.19 331.66 347.301 327.137 323.53C334.682 324.57 342.254 325.313 349.827 325.681C392.831 327.592 379.427 310.04 349.935 275.418C357.45 270.719 367.072 266.424 379.262 262.706C466.501 236.401 418.862 200.19 368.758 200.453Z" fill="#F7F0F1"/>
<path d="M363.564 107.641C380.242 112.995 407.721 99.9019 401.648 92.0864C395.608 84.0945 351.377 103.562 363.564 107.641ZM414.248 205.925C401.562 209.724 387.992 183.391 409.9 171.19C431.693 159.11 413.075 167.429 412.262 181.549C411.494 195.687 425.057 202.759 414.248 205.925ZM7.36972 243.743C45.8119 230.513 52.0496 195.538 28.2927 197.796C4.05569 200.015 -8.87705 249.203 7.36972 243.743Z" fill="#F7F0F1"/>
<path d="M349.775 165.387C349.759 166.174 349.218 166.805 348.565 166.795C347.912 166.785 347.394 166.14 347.41 165.353C347.426 164.566 347.97 163.935 348.624 163.945C349.277 163.955 349.792 164.6 349.775 165.387ZM349.599 178.924C349.594 179.711 349.061 180.345 348.406 180.339C347.751 180.334 347.224 179.69 347.229 178.901C347.234 178.114 347.769 177.48 348.424 177.487C349.078 177.493 349.604 178.137 349.599 178.924ZM349.622 192.463C349.628 193.25 349.104 193.887 348.447 193.884C347.791 193.882 347.252 193.242 347.245 192.453C347.239 191.666 347.766 191.029 348.421 191.032C349.078 191.035 349.615 191.676 349.622 192.463ZM349.844 206.002C349.863 206.789 349.346 207.428 348.687 207.429C348.029 207.431 347.48 206.792 347.462 206.005C347.444 205.218 347.964 204.577 348.62 204.577C349.279 204.577 349.826 205.214 349.844 206.002ZM359.872 158.022C359.851 158.806 359.306 159.432 358.654 159.422C358.001 159.411 357.488 158.767 357.511 157.982C357.532 157.198 358.079 156.57 358.731 156.582C359.384 156.593 359.894 157.238 359.872 158.022ZM359.609 171.504C359.6 172.288 359.064 172.917 358.409 172.91C357.756 172.904 357.231 172.26 357.241 171.476C357.251 170.692 357.79 170.062 358.443 170.07C359.098 170.078 359.619 170.72 359.609 171.504ZM359.544 184.99C359.546 185.774 359.017 186.407 358.362 186.403C357.707 186.398 357.173 185.76 357.171 184.976C357.169 184.192 357.7 183.558 358.355 183.563C359.012 183.566 359.543 184.206 359.544 184.99ZM359.678 198.477C359.691 199.261 359.172 199.896 358.514 199.896C357.857 199.896 357.311 199.259 357.298 198.474C357.285 197.688 357.808 197.054 358.465 197.054C359.123 197.056 359.665 197.693 359.678 198.477ZM62.1158 263.219C62.1435 263.987 61.6944 264.622 61.1113 264.633C60.5282 264.646 60.0333 264.032 60.0055 263.263C59.9777 262.494 60.4285 261.86 61.0116 261.849C61.5931 261.837 62.088 262.45 62.1158 263.219ZM62.676 276.441C62.7136 277.208 62.2709 277.845 61.6878 277.86C61.1047 277.876 60.6 277.264 60.5625 276.495C60.5249 275.725 60.9692 275.09 61.5523 275.075C62.1354 275.062 62.6384 275.673 62.676 276.441ZM63.4061 289.656C63.4535 290.424 63.019 291.061 62.4343 291.079C61.8495 291.097 61.3367 290.487 61.2893 289.72C61.2419 288.95 61.678 288.313 62.2628 288.297C62.8475 288.279 63.3587 288.888 63.4061 289.656ZM64.3093 302.863C64.3665 303.631 63.9402 304.269 63.3538 304.291C62.7691 304.31 62.2464 303.706 62.1893 302.938C62.1321 302.171 62.5617 301.53 63.1464 301.511C63.7311 301.49 64.2522 302.096 64.3093 302.863ZM70.7251 255.689C70.7479 256.455 70.2955 257.086 69.7124 257.097C69.1293 257.109 68.6393 256.496 68.6164 255.728C68.5936 254.961 69.0476 254.33 69.6307 254.32C70.2122 254.309 70.7022 254.922 70.7251 255.689ZM71.2036 268.874C71.2363 269.64 70.792 270.272 70.2073 270.286C69.6226 270.301 69.1244 269.69 69.0917 268.923C69.0591 268.155 69.5066 267.523 70.0897 267.51C70.6728 267.497 71.171 268.107 71.2036 268.874ZM71.8537 282.053C71.8962 282.819 71.4584 283.453 70.8737 283.469C70.289 283.485 69.781 282.878 69.7385 282.112C69.6961 281.346 70.1354 280.71 70.7202 280.694C71.3033 280.678 71.8112 281.287 71.8537 282.053ZM72.6753 295.222C72.7275 295.988 72.298 296.624 71.7116 296.643C71.1269 296.663 70.6091 296.057 70.5568 295.291C70.5046 294.525 70.9374 293.888 71.5221 293.87C72.1069 293.852 72.6214 294.458 72.6753 295.222Z" fill="white"/>
<path d="M402.509 361.258L402.434 388.522C402.434 388.708 368.065 394.06 325.754 395.104C309.801 395.506 292.151 395.72 273.597 395.72C261.83 395.72 250.426 395.636 239.592 395.468C233.056 395.365 226.725 395.244 220.655 395.096C213.774 394.928 207.014 394.638 200.507 394.276C197.673 394.117 194.893 393.941 192.172 393.763C190.969 393.68 189.785 393.605 188.609 393.511C188.469 393.502 188.32 393.494 188.18 393.484C185.504 393.298 182.902 393.092 180.385 392.888C179.033 392.776 177.71 392.664 176.413 392.553C168.488 391.863 160.694 390.883 154.809 390.073C148.712 389.216 144.674 388.544 144.674 388.525V361.261H402.509V361.258Z" fill="#385877"/>
<path d="M402.509 361.258L402.434 388.522C402.434 388.708 368.065 394.06 325.754 395.104C309.801 395.506 292.151 395.72 273.597 395.72C261.83 395.72 250.426 395.636 239.592 395.468C237.849 384.577 252.123 370.303 252.123 370.303C252.123 370.303 311.852 365.044 357.38 361.26H402.509V361.258Z" fill="url(#paint0_linear_1_277)"/>
<path d="M211.685 362.88L211.665 362.906L188.18 393.48C185.504 393.296 182.902 393.092 180.385 392.888C179.033 392.775 177.71 392.664 176.413 392.551C168.488 391.859 160.694 390.883 154.809 390.065L178.546 362.906L179.758 361.523C189.756 362.022 200.422 362.478 211.685 362.88ZM224.291 363.328L200.506 394.273C197.673 394.114 194.893 393.943 192.172 393.765L200.926 381.807L214.726 363.006C217.867 363.117 221.065 363.223 224.291 363.328Z" fill="#E2F4FB"/>
<path d="M402.511 361.604C402.511 366.401 360.572 370.424 304.089 371.511C304.079 371.506 304.075 371.511 304.07 371.511L302.541 371.54C293.236 371.71 283.548 371.796 273.588 371.796C250.176 371.796 228.219 371.301 209.295 370.442C207.724 370.37 206.166 370.297 204.639 370.22C204.144 370.196 203.649 370.166 203.159 370.142C197.678 369.861 192.487 369.546 187.626 369.201C182.014 368.804 176.846 368.366 172.184 367.896C154.948 366.165 144.668 363.981 144.668 361.604C144.668 356.778 187.131 352.737 244.138 351.684C253.598 351.509 263.455 351.417 273.59 351.417C300.533 351.417 325.546 352.072 346.228 353.188H346.232C379.085 354.958 401.023 357.903 402.439 361.26C402.486 361.372 402.511 361.488 402.511 361.604Z" fill="#1D1B2C"/>
<path d="M392.76 361.815C392.76 366.187 339.405 369.733 273.59 369.733C242.599 369.733 214.365 368.948 193.17 367.657C192.061 367.59 190.969 367.522 189.903 367.453C189.419 367.422 188.946 367.39 188.474 367.359C183.858 367.043 179.629 366.705 175.84 366.344C162.337 365.062 154.419 363.499 154.419 361.815L154.745 358.717L154.803 358.205C156.661 355.035 186.622 352.345 228.598 351.203H318.582C360.542 352.345 390.504 355.033 392.376 358.2L392.433 358.72V358.723L392.76 361.815Z" fill="#385877"/>
<path d="M392.47 358.517C392.47 358.584 392.456 358.653 392.433 358.72V358.723C390.806 362.991 338.219 366.418 273.59 366.418C243.806 366.418 216.585 365.691 195.726 364.487C194.579 364.42 193.451 364.355 192.34 364.285C191.896 364.257 191.455 364.229 191.017 364.2C186.542 363.912 182.411 363.604 178.657 363.274C164.181 362.001 155.379 360.427 154.744 358.718C154.718 358.651 154.706 358.586 154.706 358.519C154.706 358.414 154.737 358.308 154.801 358.207C156.66 355.037 186.62 352.347 228.597 351.205C242.475 350.829 257.665 350.622 273.588 350.622C289.512 350.622 304.702 350.829 318.58 351.205C360.54 352.347 390.502 355.035 392.374 358.202C392.439 358.305 392.47 358.41 392.47 358.517ZM289.126 382.487C278.774 383.001 268.402 383.001 258.05 382.487C258.202 379.44 258.353 376.394 258.505 373.346C268.554 373.846 278.624 373.846 288.674 373.346C288.824 376.394 288.976 379.44 289.126 382.487Z" fill="#1D1B2C"/>
<path d="M293.226 390.73C280.146 391.53 267.031 391.53 253.952 390.73L254.511 381.596C267.218 382.374 279.962 382.374 292.667 381.596L293.226 390.73ZM298.284 398.725C281.844 399.959 265.334 399.959 248.894 398.725C249.043 396.736 249.193 394.748 249.342 392.759C265.484 393.97 281.695 393.97 297.837 392.759C297.985 394.746 298.134 396.736 298.284 398.725Z" fill="#1D1B2C"/>
<path d="M288.636 373.038C278.611 373.536 268.566 373.536 258.54 373.038C258.013 373.913 257.482 374.789 256.946 375.662C259.004 375.775 261.066 375.865 263.125 375.935C270.1 376.174 277.08 376.174 284.053 375.935C286.113 375.865 288.172 375.774 290.232 375.662C289.696 374.789 289.164 373.913 288.636 373.038Z" fill="#1F4168"/>
<path d="M290.32 376.907C279.174 377.515 268.004 377.515 256.857 376.907C256.879 376.492 256.902 376.077 256.923 375.661C268.025 376.265 279.15 376.265 290.252 375.661L290.32 376.907Z" fill="#385877"/>
<path d="M292.662 381.368C290.688 381.489 288.713 381.59 286.737 381.673C277.975 382.042 269.203 382.042 260.442 381.673C258.465 381.59 256.491 381.489 254.516 381.368C253.85 382.23 253.177 383.089 252.5 383.948C255.109 384.123 257.717 384.265 260.329 384.376C271.779 384.859 283.247 384.716 294.681 383.948C294.002 383.091 293.33 382.23 292.662 381.368Z" fill="#1F4168"/>
<path d="M294.789 385.191C280.672 386.14 266.506 386.14 252.389 385.191L252.473 383.947C266.534 384.891 280.644 384.891 294.706 383.947L294.789 385.191Z" fill="#385877"/>
<path d="M296.533 389.781C294.159 389.951 291.782 390.095 289.406 390.212C278.867 390.732 268.308 390.732 257.77 390.212C255.393 390.095 253.017 389.951 250.642 389.781C249.841 390.627 249.036 391.47 248.224 392.311C251.36 392.558 254.498 392.759 257.637 392.914C268.265 393.438 278.911 393.438 289.539 392.914C292.679 392.759 295.816 392.558 298.952 392.311C298.141 391.471 297.334 390.627 296.533 389.781Z" fill="#1F4168"/>
<path d="M299.081 393.552C282.112 394.888 265.064 394.888 248.095 393.552L248.193 392.308C265.097 393.639 282.08 393.639 298.983 392.308L299.081 393.552Z" fill="#385877"/>
<path d="M275.501 373.622L288.352 373.345L289.404 375.006C289.404 375.006 285.304 375.56 283.477 374.784C281.65 374.01 275.501 373.622 275.501 373.622Z" fill="url(#paint1_linear_1_277)"/>
<path d="M279.434 382.263L292.672 381.765L293.724 383.426C293.724 383.426 289.626 383.979 287.797 383.205C285.971 382.429 279.434 382.263 279.434 382.263Z" fill="url(#paint2_linear_1_277)"/>
<path d="M283.243 391.387L296.437 390.201L297.574 391.806C297.574 391.806 293.51 392.572 291.643 391.893C289.78 391.212 283.243 391.387 283.243 391.387Z" fill="url(#paint3_linear_1_277)"/>
<path d="M328.067 353.016C328.067 353.016 372.766 354.013 381.406 358.001C390.047 361.99 321.917 364.149 321.917 364.149C321.917 364.149 366.285 362.155 356.978 358.666C347.675 355.177 328.067 353.016 328.067 353.016Z" fill="white"/>
<path d="M350.411 60.6055V327.675C350.411 329.976 349.607 332.083 348.261 333.748C346.486 335.912 343.797 337.297 340.789 337.297H206.386C201.063 337.297 196.765 332.985 196.765 327.675V60.6055C200.591 57.5545 205.429 55.7382 210.698 55.7382H336.477C341.733 55.7398 346.585 57.5561 350.411 60.6055Z" fill="#FCBF44"/>
<path d="M358.91 78.1737V334.538C358.91 346.921 348.861 356.98 336.478 356.98H210.7C198.308 356.98 188.268 346.921 188.268 334.538V78.1737C188.268 73.2149 189.877 68.6138 192.606 64.9061C193.802 63.2875 195.203 61.8289 196.765 60.6055L196.765 327.678C196.765 332.985 201.065 337.305 206.391 337.305H340.789C346.105 337.305 350.415 332.987 350.415 327.678V60.6055C351.987 61.8469 353.378 63.2875 354.574 64.9061C357.302 68.6138 358.91 73.2149 358.91 78.1737Z" fill="#1F4168"/>
<path d="M337.951 18.3463C345.164 18.3463 351.012 24.1936 351.012 31.4081V34.8054C351.012 40.7017 346.081 45.4939 339.96 45.4939C333.855 45.4939 328.896 40.7017 328.896 34.8054V18.3463H337.951Z" fill="#385877"/>
<path d="M317.837 45.4809C323.946 45.4809 328.898 40.5286 328.898 34.4199V18.3414H306.776V34.4199C306.776 40.5286 311.728 45.4809 317.837 45.4809Z" fill="#EFE6DC"/>
<path d="M284.653 18.3479V34.8168C284.653 40.7017 289.613 45.4874 295.714 45.4874C301.829 45.4874 306.774 40.7017 306.774 34.8168V18.3479H284.653Z" fill="#385877"/>
<path d="M273.592 45.4809C279.7 45.4809 284.653 40.5286 284.653 34.4199V18.3414H262.531V34.4199C262.531 40.5286 267.483 45.4809 273.592 45.4809Z" fill="#EFE6DC"/>
<path d="M240.409 18.3479V34.8168C240.409 40.7017 245.369 45.4874 251.47 45.4874C257.585 45.4874 262.531 40.7017 262.531 34.8168V18.3479H240.409Z" fill="#385877"/>
<path d="M229.346 45.4809C235.455 45.4809 240.407 40.5286 240.407 34.4199V18.3414H218.285V34.4199C218.287 40.5286 223.239 45.4809 229.346 45.4809Z" fill="#EFE6DC"/>
<path d="M218.287 18.3463V34.8054C218.287 40.7017 213.341 45.4939 207.221 45.4939C201.116 45.4939 196.155 40.7017 196.155 34.8054V31.4081C196.155 24.1936 202.003 18.3463 209.217 18.3463H218.287Z" fill="#385877"/>
<path d="M328.895 33.5722L347.384 45.1934L347.577 45.6409V45.654L347.866 46.3122C350.117 51.2612 358.909 55.472 367.446 55.472C372.06 55.472 375.451 54.26 377.171 52.3654V45.6409L376.898 45.2065L351.229 33.5722H328.895Z" fill="#3B3A51"/>
<path d="M332.075 55.4703H340.253C346.634 55.4703 350.435 49.7275 348.81 45.9545L328.896 33.5722H306.776L318.724 45.881C319.699 49.6524 325.693 55.4703 332.075 55.4703Z" fill="white"/>
<path d="M284.653 33.5755L288.434 46.1848C288.865 51.1877 296.249 55.4752 304.878 55.4752C313.527 55.4752 319.786 50.6569 318.492 45.654L306.776 33.5755H284.653Z" fill="#3B3A51"/>
<path d="M269.503 55.4703H277.68C284.061 55.4703 289.479 51.4491 289.152 47.6761L284.651 33.5722H262.529L258.215 46.8904C257.892 50.6634 263.122 55.4703 269.503 55.4703Z" fill="white"/>
<path d="M240.407 33.5755L227.457 46.9656C226.163 51.9685 233.678 55.4769 242.305 55.4769C250.954 55.4769 257.899 51.5569 258.33 46.554L262.531 33.5771H240.407V33.5755Z" fill="#3B3A51"/>
<path d="M206.932 55.4703H215.11C221.492 55.4703 226.481 50.9248 227.458 47.1518L240.41 33.5706H218.292L196.689 47.1436C195.061 50.9166 200.551 55.4703 206.932 55.4703Z" fill="white"/>
<path d="M170.006 45.6801V52.3523C171.709 54.247 175.118 55.472 179.732 55.472C188.381 55.472 197.222 51.1812 199.376 46.1799L199.602 45.6671V45.654L199.794 45.1934H199.811L218.284 33.5722H195.095L170.295 45.2065L170.006 45.6801Z" fill="#3B3A51"/>
<path d="M347.577 45.2065V63.8934C347.577 70.5787 354.216 76.0144 362.383 76.0144C370.564 76.0144 377.173 70.5787 377.173 63.8934V45.6409L376.9 45.2065H347.577ZM288.39 45.1999V63.8983C288.39 70.5803 295.026 76.0128 303.188 76.0128C311.369 76.0128 317.986 70.5803 317.986 63.8983V45.1999H288.39ZM229.201 45.1999V63.8983C229.201 70.5803 235.837 76.0128 243.999 76.0128C252.18 76.0128 258.797 70.5803 258.797 63.8983V45.1999H229.201Z" fill="#1F4168"/>
<path d="M317.986 45.1918V61.3373C317.986 69.437 324.61 76.003 332.782 76.003C340.954 76.003 347.58 69.437 347.58 61.3373V45.1918H317.986ZM258.795 61.3389C258.795 69.4386 265.42 76.0046 273.593 76.0046C281.765 76.0046 288.39 69.4386 288.39 61.3389V45.1934H258.795V61.3389ZM199.607 61.3389C199.607 69.4386 206.231 76.0046 214.405 76.0046C222.576 76.0046 229.201 69.4386 229.201 61.3389V45.1934H199.607V61.3389Z" fill="#EFE6DC"/>
<path d="M170.006 45.6801V63.8934C170.006 70.5787 176.645 76.0144 184.812 76.0144C192.995 76.0144 199.602 70.5787 199.602 63.8934V45.2065H170.296L170.006 45.6801Z" fill="#1F4168"/>
<path d="M214.591 105.527H332.586V274.246H214.591V105.527Z" fill="white"/>
<path d="M78.766 126.184C78.766 126.184 56.7372 150.463 49.1439 141.518C42.7151 133.942 67.0321 114.641 67.0321 114.641L78.766 126.184ZM127.549 112.844C127.549 112.844 150.649 143.644 139.974 148.342C129.648 152.886 120.396 125.82 120.396 125.82L127.549 112.844ZM187.231 137.011C186.924 137.057 186.643 137.072 186.422 137.062C186.377 137.059 186.337 137.059 186.3 137.054C185.351 136.962 184.412 136.822 183.546 136.663C181.217 136.244 179.409 135.703 179.409 135.703C179.409 135.703 175.552 138.248 173.764 138.053C172.037 137.171 171.933 129.96 171.933 129.96C175.249 129.544 176.986 127.28 179.543 126.346C182.102 125.415 185.328 125.454 185.328 125.454C185.328 125.454 198.842 121.632 199.698 124.689C200.08 126.048 193.114 127.489 190.525 128.338C190.504 128.346 190.483 128.351 190.461 128.359C190.468 128.361 191.492 129.067 191.219 130.171C191.089 130.71 190.791 130.943 190.791 130.943C190.791 130.943 191.234 131.538 191.232 132.067C191.231 132.6 190.937 133.405 190.689 133.467C190.69 133.477 191.11 133.98 190.889 134.612C190.671 135.242 189.769 135.683 189.769 135.683L189.767 135.677C189.691 135.773 189.614 135.865 189.53 135.948C188.892 136.588 187.977 136.897 187.231 137.011Z" fill="#F18A66"/>
<path d="M187.231 137.011C187.303 136.894 187.352 136.765 187.363 136.623C187.41 135.987 186.809 135.767 186.326 135.685C186.043 135.638 185.743 135.639 185.467 135.556C185.227 135.489 184.993 135.313 184.809 135.141C183.206 133.692 183.082 129.931 185.364 129.222C186.3 128.931 187.296 128.714 188.256 128.562C189.058 128.435 189.656 128.317 190.46 128.356C190.466 128.358 191.49 129.063 191.218 130.168C191.087 130.707 190.79 130.94 190.79 130.94C190.79 130.94 191.232 131.535 191.231 132.064C191.229 132.596 190.935 133.402 190.687 133.464C190.689 133.473 191.108 133.977 190.888 134.609C190.669 135.239 189.767 135.68 189.767 135.68L189.766 135.674C189.689 135.77 189.612 135.861 189.529 135.945C188.892 136.588 187.977 136.897 187.231 137.011Z" fill="#F18A66"/>
<path d="M186.837 135.732C184.368 135.901 183.486 134.79 183.209 134.261C183.126 132.66 183.306 131.1 183.732 130.262C184.029 129.676 184.975 129.233 186.104 128.92C186.038 128.926 185.973 128.931 185.909 128.938C184.825 129.06 183.59 129.261 182.749 130.017C181.919 130.765 181.784 131.919 182.048 132.956C182.261 133.787 182.68 134.56 183.178 135.268V135.27C183.18 135.272 183.182 135.272 183.182 135.273C183.227 135.339 183.275 135.406 183.322 135.471C183.319 135.45 183.317 135.429 183.314 135.409C184.385 136.422 186.837 135.732 186.837 135.732Z" fill="#231F20"/>
<path d="M183.464 134.15C184.245 134.249 184.864 134.267 185.643 134.244C186.437 134.213 187.237 134.117 187.982 133.844C187.221 134.065 186.427 134.104 185.643 134.079C184.861 134.048 183.37 133.812 183.37 133.812C183.298 133.553 183.356 132.611 183.404 132.208C183.405 132.188 183.409 132.168 183.412 132.147C184.212 132.18 185.008 132.185 185.803 132.15C186.608 132.113 187.419 132.049 188.199 131.85C187.407 131.995 186.602 132.003 185.802 131.985C185.016 131.964 184.23 131.907 183.453 131.822C183.49 131.548 183.533 131.275 183.608 131.014C183.815 130.292 184.054 129.926 185.142 129.395C185.508 129.217 185.898 129.088 186.288 128.962C186.677 128.828 187.076 128.72 187.474 128.611C186.649 128.696 185.833 128.871 185.044 129.163C184.65 129.312 184.261 129.495 183.922 129.782C183.842 129.861 183.752 129.931 183.69 130.03L183.588 130.171L183.513 130.319C183.459 130.417 183.42 130.519 183.386 130.622C183.347 130.723 183.314 130.826 183.29 130.93C183.08 131.758 183.043 132.6 183.067 133.431C183.094 134.262 183.358 135.001 184.505 135.411C183.842 135.12 183.464 134.328 183.464 134.15Z" fill="#D16F52"/>
<path d="M186.782 128.448C186.782 128.448 186.065 128.977 185.612 128.34C185.16 127.703 185.82 126.313 183.734 126.625C181.648 126.935 179.071 126.697 180.642 125.996C182.213 125.295 185.045 124.157 185.811 125.15C186.577 126.145 186.782 128.448 186.782 128.448Z" fill="#231F20"/>
<path d="M179.541 126.342C179.541 126.342 182.88 123.067 184.214 122.613C185.55 122.159 187.698 123.309 188.121 124.283C188.511 125.183 187.923 127.569 187.432 128.146C186.94 128.722 186.179 129.318 185.749 127.396C185.32 125.473 184.786 125.514 184.786 125.514L179.541 126.342Z" fill="#D16F52"/>
<path d="M186.974 126.968C186.974 126.968 186.525 128.214 186.679 128.423C186.832 128.632 187.548 127.967 187.585 127.531C187.624 127.095 186.974 126.968 186.974 126.968Z" fill="white"/>
<path d="M139.534 134.419L174.946 129.093L179.409 135.7C179.409 135.7 139.559 157.632 132.116 146.034C124.671 134.439 139.534 134.419 139.534 134.419Z" fill="#F18A66"/>
<path d="M179.517 135.59C178.448 134.839 177.958 132.779 177.7 130.855C177.506 129.392 178.004 128.023 178.59 126.983C178.381 127.152 178.176 127.33 177.983 127.526C177.478 128.036 175.175 130.13 175.598 132.002C176.26 134.925 178.958 135.128 179.397 135.608C179.436 135.602 179.477 135.597 179.517 135.59Z" fill="#231F20"/>
<path d="M90.0801 260.102L95.542 285.891L55.9679 359.71L59.3604 364.757C59.3604 364.757 103.354 325.212 120.065 297.707C136.775 270.201 129.92 254.334 129.92 254.334L90.0801 260.102Z" fill="#D16F52"/>
<path d="M123.309 262.535L106.948 377.449L100.091 377.206L82.1552 258.855L123.309 262.535Z" fill="#F18A66"/>
<path d="M119.16 152.002C121.19 143.206 123.011 137.005 123.768 131.744C127.55 130.282 131.542 117.152 131.542 117.152C131.542 117.152 123.02 91.9231 102.98 93.3669C72.4891 95.5654 65.665 113.896 55.9712 119.574C53.3366 121.117 64.5576 128.779 69.0836 136.605C73.247 134.334 74.9505 132.252 79.6022 128.258C78.2417 144.649 78.7986 161.448 66.8018 173.309C42.8767 196.963 61.077 229.543 53.335 254.57C45.593 279.598 129.79 286.22 144.442 262.889C159.095 239.562 114.636 171.604 119.16 152.002Z" fill="#D04719"/>
<path d="M99.2741 368.383L100.476 376.954C100.476 376.954 111.207 390.002 119.852 387.793C128.498 385.587 124.703 384.252 124.703 384.252C124.703 384.252 110.85 380.226 106.858 378.121C102.867 376.015 106.686 374.875 106.686 374.875L107.264 366.834L99.2741 368.383Z" fill="#F18A66"/>
<path d="M99.0324 373.871C99.0324 373.871 106.872 373.02 107.583 375.798C108.292 378.576 109.791 384.443 115.936 384.683C122.082 384.924 128.568 383.926 127.728 385.784C126.887 387.643 116.636 393.221 110.747 390.121C104.857 387.021 103.215 383.164 103.215 383.164L104.187 392.125L102.489 392.558C102.487 392.558 96.3848 377.672 99.0324 373.871Z" fill="#1F4168"/>
<path d="M55.3178 361.635C55.3178 361.635 55.2248 378.527 63.2836 382.359C71.3409 386.191 69.278 382.74 69.278 382.74C69.278 382.74 61.2011 370.784 59.4796 366.614C57.758 362.442 61.4233 364.009 61.4233 364.009L55.3178 361.635Z" fill="#D16F52"/>
<path d="M56.1786 358.341C56.1786 358.341 62.7512 362.7 61.5196 365.291C60.2881 367.881 57.6878 373.35 62.2595 377.462C66.8312 381.577 72.4564 384.958 70.6222 385.85C68.7879 386.741 57.3399 384.474 54.7935 378.323C52.2488 372.174 53.4526 368.159 53.4526 368.159L48.4693 375.669L46.8866 374.916C46.8849 374.916 51.7131 359.569 56.1786 358.341Z" fill="#1F4168"/>
<path d="M121.249 129.32C121.249 129.32 111.702 159.618 118.121 169.381C124.54 179.143 150.197 238.765 139.247 257.803C129.251 275.185 94.6159 271.753 94.6159 271.753C94.6159 271.753 134.966 270.912 134.706 249.043C134.386 221.972 129.055 199.38 114.229 174.968C99.8752 171.898 87.5566 171.182 87.5566 171.182C87.5566 171.182 108.712 173.753 110.938 161.81C113.164 149.866 99.8752 135.231 121.249 129.32Z" fill="#D27606"/>
<path d="M48.5869 135.313C42.6824 147.763 81.1 167.252 81.1 167.252L86.183 164.584C86.183 164.584 86.1715 164.579 86.165 164.561L65.5409 135.734C65.5409 135.734 63.4682 133.315 60.6327 131.592C56.9267 129.336 51.9238 128.261 48.5869 135.313Z" fill="#F18A66"/>
<path d="M60.6344 131.595C61.0133 133.916 61.1864 136.605 60.6409 138.875C59.8324 142.259 70.4817 151.816 78.2793 158.272C78.5569 158.503 75.2674 163.434 78.1682 165.792C82.0131 168.915 85.8988 164.366 86.165 164.564L68.231 139.572L68.2767 139.566L65.5409 135.737C65.5409 135.736 63.4682 133.318 60.6344 131.595Z" fill="#000107"/>
<path d="M81.933 160.177C81.933 160.177 81.7093 156.298 79.5729 155.687C77.4365 155.076 78.895 162.947 78.895 162.947C78.895 162.947 82.2238 161.851 81.933 160.177Z" fill="#D16F52"/>
<path d="M63.607 183.582C62.6041 176.211 65.5719 168.564 71.4193 163.383C73.9754 161.119 78.3609 157.725 81.933 160.177C83.617 161.333 84.9416 163.158 86.1487 164.703C87.4194 166.33 88.4598 168.061 89.0641 169.987C89.8481 172.486 90.0066 175.182 91.7494 177.346C93.4562 179.465 96.0973 180.822 98.5603 182.091C99.1304 182.385 98.9883 183.795 98.3725 183.476C96.1659 182.34 93.925 181.18 92.143 179.511C90.4068 177.884 89.5052 175.927 88.94 173.748C88.2459 171.071 87.6546 168.675 85.9461 166.348C84.5513 164.45 82.3316 160.948 79.5761 160.709C76.8762 160.474 73.9901 162.865 72.182 164.437C70.4371 165.952 68.9281 167.72 67.7051 169.681C65.0868 173.884 63.9811 178.731 64.6344 183.53C64.752 184.407 63.723 184.443 63.607 183.582Z" fill="#1D1B2C"/>
<path d="M57.3073 262.637L123.297 257.411L110.079 166.555L53.0606 171.07L57.3073 262.637Z" fill="#1F4168"/>
<path d="M53.0606 171.07L50.4718 173.087L48.5755 171.424L43.8747 249.866L50.2594 253.148L57.3073 262.637L53.0606 171.07Z" fill="#1D1B2C"/>
<path d="M53.0606 171.07L50.2594 253.148L57.3073 262.637L53.0606 171.07Z" fill="black"/>
<path d="M99.72 183.269C99.8278 184.397 100.922 185.232 102.162 185.134C103.403 185.036 104.321 184.041 104.213 182.913C104.106 181.784 103.011 180.95 101.771 181.048C100.53 181.146 99.6106 182.14 99.72 183.269ZM65.6732 185.15C65.781 186.279 66.8753 187.114 68.115 187.016C69.3564 186.918 70.2743 185.923 70.1665 184.794C70.0587 183.666 68.966 182.831 67.7246 182.929C66.4833 183.027 65.5654 184.022 65.6732 185.15Z" fill="black"/>
<path d="M67.269 183.582C66.2677 176.211 69.2338 168.564 75.0812 163.383C77.6374 161.119 82.0229 157.725 85.595 160.177C87.2806 161.333 88.6036 163.158 89.8106 164.703C91.0813 166.33 92.1218 168.061 92.7261 169.987C93.5101 172.486 93.6685 175.182 95.4113 177.346C97.1165 179.465 99.7592 180.822 102.222 182.091C102.792 182.385 102.65 183.795 102.034 183.476C99.8278 182.34 97.5869 181.18 95.8049 179.511C94.0687 177.884 93.1671 175.927 92.602 173.748C91.9062 171.071 91.3165 168.675 89.6064 166.348C88.2116 164.45 85.9919 160.948 83.2364 160.709C80.5365 160.474 77.6504 162.865 75.8423 164.437C74.0974 165.952 72.5884 167.72 71.3654 169.681C68.7471 173.884 67.6414 178.731 68.2947 183.53C68.4139 184.407 67.3849 184.443 67.269 183.582Z" fill="#1D1B2C"/>
<path d="M92.1071 162.344C91.065 161.949 89.0919 163.687 89.0919 163.687C89.0919 163.687 91.6007 160.869 90.4852 160.293C89.5852 159.827 87.9878 161.322 87.4014 161.92C88.0466 161.212 89.7436 159.117 87.9698 158.396C86.8804 157.955 84.6934 160.231 84.6934 160.231C84.6934 160.231 86.9702 157.237 85.7354 156.732C83.4439 155.795 79.3867 160.874 79.3867 160.874C79.3867 160.874 77.719 165.72 80.2148 164.802C80.2148 164.802 79.2413 166.965 80.7848 167.27C82.3283 167.574 82.851 166.87 82.851 166.87C82.851 166.87 82.3985 168.326 83.3148 168.802C84.2311 169.279 84.7473 168.164 84.7473 168.164C84.7473 168.164 85.0478 169.928 86.4851 169.596C87.6301 169.332 89.2683 167.636 89.889 166.955C89.9053 166.967 89.9168 166.973 89.9168 166.973C89.9168 166.973 90.0033 166.859 90.1422 166.669C90.8592 165.693 92.9809 162.674 92.1071 162.344Z" fill="#F18A66"/>
<path d="M83.5778 157.924L85.1213 158.939C85.1213 158.939 86.1029 157.563 85.5982 157.024C85.0935 156.485 83.5778 157.924 83.5778 157.924ZM86.2516 159.581C86.2516 159.581 87.2463 160.876 87.6432 160.678C88.0384 160.481 88.6607 159.455 88.1626 158.929C87.6644 158.401 86.2957 159.385 86.2516 159.581ZM89.1001 160.943C89.1001 160.943 89.4398 161.75 90.0327 161.794C90.0327 161.794 90.838 161.018 90.41 160.613C89.9805 160.209 89.1001 160.943 89.1001 160.943ZM90.9833 162.844C90.9833 162.844 91.2659 163.499 91.7053 163.447C91.7053 163.447 92.223 163.105 91.9829 162.619C91.7445 162.13 90.9833 162.844 90.9833 162.844Z" fill="white"/>
<path d="M107.552 49.6818C110.02 50.3531 119.269 50.3515 122.85 55.6827C126.735 61.2817 122.035 71.1258 127.879 72.2202C134.214 72.341 131.479 80.2317 126.121 83.6894C123.521 85.4208 117.523 86.5804 114.823 88.0766C110.477 90.9365 102.444 92.4082 96.3946 91.3726C90.299 90.5298 86.1879 87.1799 88.5987 84.8311C93.5607 79.0344 86.1029 76.9372 91.0634 70.7665C95.0618 65.321 93.1197 63.7628 94.2696 61.2491C97.8352 52.955 101.27 48.9795 107.552 49.6818Z" fill="#1D1B2C"/>
<path d="M101.716 79.4411L99.9961 96.498C99.9961 96.498 105.299 104.381 110.603 98.5054L110.459 87.0394L101.716 79.4411Z" fill="#F18A66"/>
<path d="M106.057 98.7243C107.197 96.7855 107.635 93.8357 105.868 92.1093C105.154 91.4102 104.223 90.9741 103.534 90.2473C102.678 89.3424 102.523 87.9704 102.649 86.783C102.853 84.8426 103.676 82.9528 103.542 81.0304L110.458 87.0394L110.601 98.5054C108.53 100.8 106.461 100.993 104.705 100.38C105.224 99.9052 105.685 99.358 106.057 98.7243Z" fill="#33133F"/>
<path d="M124.315 61.9073C124.315 61.9073 125.27 89.331 114.378 90.1917C103.485 91.0525 98.7074 79.5849 98.7074 79.5849C98.7074 79.5849 96.7 80.8278 96.2231 78.8205C95.7445 76.8131 93.3566 73.2786 95.7445 71.9409C98.1341 70.6032 98.8985 72.8 98.8985 72.8L97.5608 66.5884C97.5591 66.5884 124.027 52.924 124.315 61.9073Z" fill="#F18A66"/>
<path d="M97.8401 73.1773C97.8401 73.1773 96.406 72.4031 95.8327 73.5219C95.2594 74.6408 96.522 78.9136 98.2125 78.3974C98.2125 78.3974 96.0336 77.4517 96.2917 74.84C96.5481 72.2316 97.466 74.0103 97.8401 73.1773ZM104.445 79.7939C104.316 80.5551 105.146 81.3293 106.297 81.5237C107.449 81.718 108.486 81.2574 108.615 80.4963C108.744 79.7351 107.914 78.9609 106.763 78.7666C105.61 78.5738 104.573 79.0328 104.445 79.7939ZM117.487 79.8658C117.358 80.6269 118.188 81.4011 119.34 81.5955C120.491 81.7899 121.528 81.3309 121.657 80.5698C121.786 79.8086 120.957 79.0344 119.805 78.8401C118.654 78.6457 117.616 79.1047 117.487 79.8658Z" fill="#33133F"/>
<path d="M116.935 72.7102C117.046 72.7102 117.154 72.653 117.215 72.5485C117.267 72.4586 118.512 70.4023 121.566 71.7547C121.729 71.8265 121.919 71.753 121.991 71.5913C122.062 71.428 121.989 71.2385 121.827 71.1667C118.231 69.5709 116.672 72.2006 116.658 72.2283C116.569 72.3835 116.623 72.5795 116.777 72.6677C116.826 72.6971 116.881 72.7102 116.935 72.7102ZM110.693 72.7673C110.732 72.7673 110.773 72.7592 110.814 72.7445C110.977 72.6775 111.059 72.4929 110.992 72.328C110.98 72.2986 109.809 69.4909 105.577 70.3974C105.536 70.4062 105.497 70.4231 105.462 70.4471C105.427 70.4711 105.397 70.5017 105.374 70.5372C105.352 70.5727 105.336 70.6124 105.328 70.654C105.321 70.6956 105.322 70.7383 105.331 70.7796C105.339 70.821 105.356 70.8603 105.38 70.8952C105.404 70.9301 105.434 70.9598 105.47 70.9828C105.506 71.0057 105.545 71.0214 105.587 71.0288C105.629 71.0363 105.671 71.0354 105.713 71.0262C109.393 70.2373 110.356 72.4717 110.395 72.5681C110.444 72.6922 110.565 72.7673 110.693 72.7673ZM114.358 80.8981C114.469 80.8981 114.578 80.8817 114.686 80.8507C115.369 80.6514 115.656 79.8838 115.67 79.8511C115.704 79.7564 115.692 79.6502 115.637 79.5653C114.487 77.7996 114.789 75.3986 114.792 75.3758C114.815 75.1994 114.693 75.0377 114.516 75.0148C114.342 74.9854 114.178 75.1144 114.154 75.2908C114.139 75.3954 113.83 77.8192 115.001 79.7662C114.908 79.9344 114.737 80.1696 114.503 80.2366C114.284 80.3003 114.021 80.2137 113.716 79.9801C113.574 79.8723 113.373 79.8985 113.265 80.0406C113.157 80.181 113.184 80.3836 113.326 80.4914C113.683 80.7609 114.028 80.8981 114.358 80.8981Z" fill="#1D1B2C"/>
<path d="M116.427 84.1337C116.427 84.1337 112.756 85.7964 108.643 83.8838C107.71 85.5923 112.584 90.0415 116.427 84.1337Z" fill="#FCFAF7"/>
<path d="M117.912 75.3807C117.912 76.3835 118.467 77.1969 119.155 77.1969C119.841 77.1969 120.396 76.3835 120.396 75.3807C120.396 74.3778 119.839 73.5644 119.155 73.5644C118.469 73.5644 117.912 74.3778 117.912 75.3807ZM106.734 75.3807C106.734 76.3835 107.291 77.1969 107.975 77.1969C108.661 77.1969 109.218 76.3835 109.218 75.3807C109.218 74.3778 108.661 73.5644 107.975 73.5644C107.289 73.5644 106.734 74.3778 106.734 75.3807Z" fill="#1D1B2C"/>
<path d="M111.666 88.694C112.006 88.694 112.228 88.6433 112.251 88.6384C112.292 88.6284 112.328 88.6023 112.351 88.5658C112.373 88.5294 112.38 88.4856 112.37 88.4441C112.36 88.4029 112.334 88.3673 112.298 88.345C112.262 88.3227 112.219 88.3154 112.177 88.3248C112.164 88.3281 110.752 88.6417 109.471 87.531C109.438 87.5037 109.397 87.4901 109.354 87.4931C109.312 87.4962 109.272 87.5156 109.244 87.5474C109.216 87.5798 109.203 87.6217 109.206 87.6642C109.209 87.7067 109.228 87.7463 109.26 87.7744C110.149 88.5453 111.083 88.694 111.666 88.694Z" fill="#33133F"/>
<path d="M119.354 57.4058C119.289 56.2543 119.346 55.5046 119.346 55.5046C130.67 56.5075 125.223 68.261 125.223 68.261C121.291 66.2961 119.96 62.1392 119.524 59.1029C116.481 63.2679 106.957 68.2528 96.3129 68.4684L94.9801 66.1099L119.354 57.4058Z" fill="#1D1B2C"/>
<path d="M120.411 57.1804C119.919 60.354 117.646 63.1241 115.224 65.0907C112.035 67.6795 108.075 69.2524 103.975 69.5284C101.234 69.713 98.4934 69.2851 95.8997 68.3998C95.4129 68.2332 95.622 67.4557 96.1136 67.624C100.364 69.076 104.924 69.1577 109.162 67.6207C112.525 66.4006 115.679 64.1989 117.762 61.2638C118.673 59.9783 119.392 58.5377 119.634 56.9681C119.714 56.4569 120.49 56.6725 120.411 57.1804Z" fill="#1D1B2C"/>
<path d="M364.817 202.1C358.409 198.815 354.023 191.217 355.02 185.129C356.016 179.04 362.019 176.768 368.426 180.053C374.834 183.337 379.219 190.934 378.223 197.023C377.225 203.111 371.224 205.384 364.817 202.1Z" fill="#ED9B27"/>
<path d="M365.906 201.503C359.498 198.219 355.113 190.62 356.109 184.533C357.106 178.444 363.108 176.172 369.516 179.457C375.923 182.741 380.309 190.34 379.312 196.427C378.316 202.514 372.314 204.786 365.906 201.503Z" fill="#FED978"/>
<path d="M366.089 200.383C363.678 199.146 361.589 197.234 360.037 195.026C358.058 192.208 356.957 188.909 357.192 185.925C357.213 185.658 357.244 185.395 357.289 185.136C357.347 184.778 357.424 184.433 357.52 184.107C357.56 183.97 357.602 183.837 357.65 183.708C358.376 181.636 359.861 180.221 361.78 179.594C363.915 178.896 366.582 179.164 369.334 180.574C371.376 181.621 373.191 183.155 374.639 184.941C376.74 187.529 378.078 190.65 378.247 193.595C378.292 194.353 378.259 195.101 378.14 195.823C377.885 197.382 377.264 198.663 376.372 199.628C376.284 199.723 376.194 199.816 376.101 199.904C375.705 200.286 375.259 200.612 374.775 200.875C372.497 202.124 369.351 202.055 366.089 200.383Z" fill="#F7B320"/>
<path d="M365.341 199.393C363.299 198.346 361.485 196.812 360.036 195.026C357.88 191.957 356.764 188.316 357.285 185.134C358.18 179.664 363.574 177.622 369.331 180.572C371.373 181.619 373.187 183.153 374.636 184.94C376.792 188.009 377.906 191.649 377.387 194.831C376.49 200.303 371.098 202.345 365.341 199.393Z" fill="#FFC532"/>
<path d="M376.369 199.628L357.646 183.708C358.373 181.636 359.858 180.221 361.777 179.594L378.243 193.595C378.287 194.353 378.254 195.101 378.135 195.823C377.88 197.382 377.261 198.663 376.369 199.628ZM374.772 200.875L357.191 185.925C357.212 185.658 357.243 185.395 357.287 185.136C357.346 184.778 357.422 184.433 357.519 184.107L376.1 199.903C375.703 200.285 375.256 200.612 374.772 200.875Z" fill="#EDD9B2"/>
<path d="M364.263 190.648C364.632 190.838 364.936 190.9 365.174 190.834C365.413 190.769 365.661 190.567 365.919 190.227C366.177 189.887 366.432 189.583 366.683 189.312C366.935 189.041 367.209 188.839 367.505 188.701C367.801 188.564 368.126 188.51 368.482 188.538C368.836 188.566 369.251 188.701 369.721 188.943C370.51 189.348 371.12 189.934 371.549 190.702C371.977 191.471 372.165 192.298 372.111 193.185L373.591 193.943L373.418 195.003L371.91 194.23C371.65 194.978 371.195 195.437 370.541 195.604C369.888 195.772 369.119 195.628 368.23 195.173L368.599 192.922C369.086 193.17 369.473 193.273 369.766 193.231C370.056 193.186 370.228 193 370.282 192.672C370.331 192.38 370.27 192.102 370.102 191.841C369.934 191.579 369.681 191.36 369.339 191.186C368.993 191.009 368.704 190.962 368.47 191.044C368.237 191.127 367.993 191.326 367.742 191.645C367.502 191.949 367.246 192.241 366.976 192.518C366.718 192.783 366.44 192.984 366.144 193.121C365.849 193.258 365.521 193.315 365.16 193.294C364.799 193.273 364.382 193.141 363.91 192.899C363.11 192.489 362.499 191.914 362.073 191.174C361.648 190.433 361.46 189.627 361.512 188.754L360.103 188.032L360.276 186.973L361.692 187.698C361.958 186.785 362.429 186.222 363.105 186.008C363.781 185.794 364.603 185.934 365.569 186.431L365.202 188.675C364.67 188.402 364.245 188.306 363.93 188.389C363.614 188.471 363.423 188.718 363.356 189.131C363.307 189.433 363.363 189.719 363.525 189.99C363.685 190.258 363.931 190.478 364.263 190.648Z" fill="#F7B320"/>
<path d="M364.849 190.402C365.218 190.591 365.522 190.653 365.761 190.588C365.999 190.523 366.247 190.32 366.505 189.98C366.763 189.641 367.018 189.335 367.27 189.066C367.521 188.794 367.796 188.592 368.091 188.455C368.389 188.317 368.712 188.264 369.068 188.291C369.423 188.319 369.837 188.455 370.308 188.696C371.098 189.102 371.708 189.688 372.135 190.456C372.565 191.225 372.751 192.051 372.697 192.938L374.177 193.696L374.004 194.756L372.496 193.984C372.237 194.732 371.781 195.189 371.128 195.357C370.474 195.524 369.703 195.382 368.817 194.926L369.186 192.674C369.671 192.924 370.06 193.025 370.35 192.982C370.641 192.94 370.814 192.754 370.868 192.424C370.915 192.131 370.857 191.854 370.688 191.592C370.522 191.331 370.267 191.112 369.926 190.937C369.579 190.761 369.29 190.712 369.057 190.795C368.823 190.879 368.58 191.078 368.328 191.396C368.088 191.701 367.833 191.992 367.562 192.27C367.304 192.535 367.026 192.736 366.731 192.873C366.435 193.01 366.107 193.067 365.744 193.046C365.383 193.025 364.967 192.892 364.495 192.651C363.696 192.241 363.084 191.666 362.657 190.926C362.231 190.186 362.045 189.379 362.097 188.505L360.688 187.783L360.861 186.725L362.277 187.45C362.543 186.537 363.013 185.974 363.69 185.76C364.366 185.546 365.187 185.686 366.154 186.183L365.787 188.427C365.254 188.154 364.83 188.058 364.514 188.139C364.199 188.221 364.008 188.469 363.941 188.881C363.892 189.183 363.948 189.469 364.108 189.74C364.273 190.011 364.518 190.232 364.849 190.402Z" fill="#FED978"/>
<path d="M301.242 111.776C296.728 110.262 293.107 105.728 293.156 101.648C293.205 97.5679 296.906 95.487 301.42 97.0011C305.935 98.5152 309.556 103.049 309.507 107.129C309.458 111.209 305.757 113.289 301.242 111.776Z" fill="#ED9B27"/>
<path d="M301.896 111.278C297.381 109.764 293.76 105.23 293.809 101.15C293.858 97.0697 297.559 94.9888 302.074 96.5029C306.588 98.017 310.209 102.551 310.16 106.631C310.111 110.711 306.41 112.791 301.896 111.278Z" fill="#FED978"/>
<path d="M301.904 110.528C300.205 109.958 298.649 108.915 297.415 107.624C295.843 105.978 294.796 103.93 294.653 101.955C294.64 101.779 294.635 101.604 294.637 101.429C294.64 101.189 294.657 100.957 294.686 100.733C294.698 100.64 294.714 100.549 294.732 100.461C295.001 99.033 295.833 97.9615 297.025 97.3604C298.351 96.6924 300.122 96.6042 302.062 97.2543C303.501 97.7361 304.839 98.5609 305.964 99.585C307.594 101.07 308.779 102.977 309.18 104.887C309.283 105.378 309.337 105.87 309.331 106.355C309.318 107.401 309.04 108.299 308.552 109.019C308.504 109.089 308.454 109.16 308.401 109.227C308.18 109.515 307.92 109.773 307.63 109.993C306.268 111.033 304.204 111.298 301.904 110.528Z" fill="#F7B320"/>
<path d="M301.317 109.955C299.878 109.473 298.541 108.648 297.417 107.624C295.704 105.831 294.614 103.561 294.64 101.429C294.684 97.7622 298.008 95.8937 302.065 97.2543C303.504 97.7361 304.842 98.5609 305.968 99.585C307.681 101.378 308.77 103.649 308.744 105.78C308.698 109.445 305.375 111.314 301.317 109.955Z" fill="#FFC532"/>
<path d="M308.553 109.016L294.733 100.457C295.003 99.0297 295.834 97.9582 297.027 97.3572L309.18 104.884C309.283 105.375 309.337 105.867 309.331 106.352C309.319 107.399 309.04 108.297 308.553 109.016ZM307.632 109.989L294.655 101.953C294.642 101.777 294.637 101.602 294.639 101.427C294.642 101.187 294.658 100.955 294.688 100.732L308.403 109.223C308.182 109.512 307.922 109.77 307.632 109.989Z" fill="#EDD9B2"/>
<path d="M299.746 104.341C300.006 104.428 300.212 104.439 300.36 104.372C300.511 104.305 300.653 104.149 300.788 103.902C300.924 103.654 301.059 103.43 301.198 103.227C301.337 103.026 301.496 102.865 301.675 102.747C301.855 102.628 302.062 102.561 302.297 102.543C302.533 102.527 302.815 102.574 303.148 102.685C303.705 102.871 304.161 103.195 304.519 103.655C304.875 104.116 305.079 104.639 305.133 105.223L306.175 105.573L306.167 106.283L305.105 105.927C305.01 106.442 304.757 106.786 304.346 106.961C303.936 107.136 303.416 107.118 302.791 106.907L302.809 105.398C303.152 105.512 303.416 105.542 303.601 105.485C303.787 105.427 303.88 105.289 303.883 105.068C303.885 104.872 303.82 104.696 303.684 104.542C303.549 104.387 303.361 104.269 303.121 104.189C302.877 104.108 302.683 104.106 302.538 104.183C302.392 104.26 302.253 104.415 302.121 104.648C301.987 104.882 301.85 105.098 301.706 105.297C301.564 105.496 301.402 105.655 301.221 105.774C301.041 105.893 300.832 105.963 300.594 105.984C300.355 106.006 300.07 105.962 299.738 105.851C299.175 105.661 298.717 105.346 298.366 104.905C298.015 104.462 297.812 103.954 297.76 103.378L296.767 103.044L296.775 102.336L297.773 102.67C297.856 102.046 298.11 101.632 298.529 101.424C298.951 101.217 299.501 101.228 300.184 101.457L300.166 102.961C299.79 102.835 299.504 102.814 299.307 102.899C299.109 102.984 299.008 103.164 299.005 103.441C299.003 103.644 299.067 103.825 299.199 103.987C299.33 104.144 299.513 104.263 299.746 104.341Z" fill="#F7B320"/>
<path d="M300.107 104.122C300.367 104.209 300.573 104.22 300.721 104.153C300.872 104.087 301.014 103.93 301.149 103.683C301.274 103.452 301.411 103.227 301.559 103.01C301.696 102.808 301.856 102.648 302.036 102.528C302.216 102.409 302.423 102.342 302.658 102.324C302.894 102.308 303.178 102.355 303.509 102.466C304.066 102.652 304.522 102.976 304.88 103.436C305.236 103.897 305.442 104.42 305.494 105.004L306.536 105.354L306.528 106.064L305.466 105.708C305.371 106.223 305.118 106.568 304.707 106.742C304.297 106.917 303.777 106.899 303.152 106.69L303.17 105.181C303.511 105.297 303.776 105.325 303.962 105.267C304.148 105.21 304.243 105.071 304.244 104.851C304.246 104.655 304.181 104.479 304.045 104.325C303.91 104.17 303.722 104.054 303.482 103.972C303.238 103.891 303.044 103.889 302.899 103.966C302.753 104.042 302.614 104.198 302.48 104.431C302.346 104.665 302.209 104.88 302.066 105.08C301.923 105.279 301.762 105.437 301.582 105.557C301.402 105.676 301.193 105.746 300.955 105.767C300.716 105.788 300.431 105.744 300.099 105.632C299.535 105.442 299.078 105.127 298.727 104.686C298.376 104.243 298.173 103.735 298.121 103.159L297.128 102.826L297.136 102.117L298.134 102.452C298.217 101.828 298.469 101.413 298.89 101.205C299.312 100.998 299.862 101.009 300.545 101.238L300.527 102.742C300.151 102.617 299.865 102.595 299.666 102.68C299.469 102.765 299.367 102.945 299.364 103.222C299.361 103.425 299.426 103.606 299.558 103.768C299.689 103.925 299.872 104.044 300.107 104.122Z" fill="#FED978"/>
<path d="M163.075 267.939C161.375 263.127 162.817 257.079 166.295 254.43C169.774 251.781 173.97 253.533 175.67 258.345C177.37 263.157 175.928 269.205 172.451 271.854C168.973 274.504 164.776 272.751 163.075 267.939Z" fill="#ED9B27"/>
<path d="M164.34 266.93C162.639 262.118 164.082 256.07 167.559 253.421C171.036 250.771 175.234 252.524 176.934 257.336C178.635 262.147 177.192 268.196 173.715 270.845C170.238 273.494 166.04 271.742 164.34 266.93Z" fill="#FED978"/>
<path d="M164.978 266.443C164.34 264.633 164.194 262.629 164.47 260.738C164.823 258.324 165.862 256.088 167.436 254.665C167.577 254.538 167.721 254.418 167.869 254.306C168.073 254.149 168.281 254.01 168.49 253.889C168.578 253.837 168.663 253.791 168.751 253.747C170.135 253.033 171.588 253.03 172.882 253.639C174.321 254.319 175.564 255.756 176.294 257.822C176.836 259.356 177.022 261.029 176.898 262.654C176.72 265.009 175.889 267.268 174.541 268.867C174.195 269.279 173.815 269.648 173.401 269.961C172.509 270.641 171.567 270.997 170.638 271.061C170.546 271.067 170.455 271.07 170.365 271.07C169.975 271.074 169.587 271.025 169.209 270.925C167.431 270.459 165.845 268.891 164.978 266.443Z" fill="#F7B320"/>
<path d="M165.076 265.569C164.534 264.036 164.348 262.363 164.472 260.736C164.856 258.107 166.055 255.689 167.872 254.304C170.997 251.923 174.768 253.497 176.297 257.821C176.839 259.354 177.026 261.027 176.902 262.652C176.518 265.282 175.319 267.699 173.501 269.084C170.375 271.467 166.603 269.893 165.076 265.569Z" fill="#FFC532"/>
<path d="M170.641 271.061L168.753 253.746C170.136 253.032 171.59 253.029 172.884 253.638L174.545 268.867C174.198 269.279 173.818 269.648 173.405 269.961C172.513 270.641 171.57 270.997 170.641 271.061ZM169.212 270.925L167.438 254.665C167.578 254.538 167.722 254.419 167.871 254.306C168.075 254.149 168.282 254.01 168.492 253.889L170.367 271.072C169.976 271.074 169.591 271.025 169.212 270.925Z" fill="#EDD9B2"/>
<path d="M168.781 260.54C168.879 260.818 169.004 260.998 169.16 261.079C169.315 261.161 169.542 261.179 169.839 261.13C170.138 261.081 170.417 261.048 170.679 261.032C170.94 261.016 171.18 261.043 171.399 261.117C171.618 261.19 171.812 261.321 171.982 261.509C172.152 261.697 172.299 261.968 172.423 262.322C172.632 262.915 172.66 263.514 172.508 264.119C172.354 264.723 172.047 265.241 171.588 265.671L171.98 266.781L171.374 267.242L170.974 266.11C170.476 266.368 170.019 266.383 169.601 266.151C169.182 265.919 168.856 265.47 168.621 264.803L169.906 263.823C170.035 264.187 170.185 264.431 170.357 264.55C170.527 264.669 170.706 264.658 170.894 264.514C171.061 264.387 171.165 264.215 171.208 263.998C171.249 263.782 171.224 263.546 171.134 263.289C171.043 263.029 170.915 262.864 170.755 262.793C170.595 262.721 170.373 262.706 170.087 262.747C169.803 262.788 169.529 262.814 169.267 262.824C169.006 262.833 168.764 262.802 168.545 262.729C168.327 262.655 168.129 262.525 167.954 262.339C167.779 262.152 167.627 261.881 167.503 261.527C167.291 260.926 167.257 260.333 167.397 259.743C167.539 259.155 167.835 258.649 168.287 258.224L167.913 257.166L168.518 256.705L168.893 257.768C169.475 257.427 169.993 257.367 170.445 257.586C170.897 257.804 171.252 258.276 171.508 259.003L170.226 259.98C170.084 259.58 169.913 259.325 169.712 259.214C169.509 259.103 169.292 259.137 169.055 259.317C168.882 259.449 168.772 259.622 168.723 259.841C168.673 260.058 168.692 260.292 168.781 260.54Z" fill="#F7B320"/>
<path d="M169.202 260.699C169.3 260.976 169.426 261.156 169.581 261.238C169.736 261.321 169.962 261.337 170.26 261.288C170.559 261.239 170.839 261.207 171.1 261.19C171.361 261.174 171.601 261.202 171.82 261.275C172.039 261.349 172.233 261.479 172.403 261.667C172.573 261.855 172.72 262.126 172.844 262.479C173.053 263.072 173.083 263.671 172.929 264.276C172.776 264.88 172.469 265.398 172.01 265.829L172.402 266.94L171.796 267.4L171.396 266.268C170.897 266.528 170.44 266.541 170.022 266.309C169.604 266.077 169.277 265.628 169.042 264.962L170.329 263.982C170.458 264.346 170.608 264.588 170.778 264.708C170.95 264.828 171.128 264.816 171.316 264.673C171.482 264.545 171.587 264.374 171.628 264.156C171.668 263.941 171.644 263.704 171.554 263.448C171.463 263.188 171.337 263.021 171.175 262.951C171.015 262.879 170.791 262.864 170.507 262.905C170.223 262.946 169.948 262.972 169.687 262.982C169.426 262.992 169.184 262.961 168.965 262.887C168.746 262.814 168.549 262.683 168.372 262.497C168.198 262.311 168.047 262.04 167.921 261.685C167.709 261.084 167.675 260.491 167.815 259.902C167.957 259.312 168.253 258.806 168.705 258.381L168.331 257.323L168.936 256.862L169.311 257.925C169.893 257.586 170.411 257.523 170.863 257.742C171.316 257.961 171.67 258.433 171.926 259.16L170.644 260.137C170.502 259.737 170.331 259.48 170.13 259.369C169.929 259.258 169.708 259.292 169.473 259.472C169.3 259.603 169.191 259.777 169.142 259.995C169.096 260.217 169.115 260.45 169.202 260.699Z" fill="#FED978"/>
<path d="M227.973 136.404C226.356 136.404 225.113 135.52 225.113 134.089H226.53C226.588 134.752 227.053 135.286 227.973 135.286C228.902 135.286 229.425 134.787 229.425 134.101C229.425 132.147 225.136 133.415 225.136 130.439C225.136 129.021 226.263 128.137 227.914 128.137C229.461 128.137 230.552 128.951 230.669 130.334H229.204C229.158 129.787 228.682 129.289 227.844 129.266C227.076 129.241 226.483 129.614 226.483 130.393C226.483 132.217 230.761 131.079 230.761 134.032C230.762 135.241 229.774 136.404 227.973 136.404ZM232.321 128.243H233.647V133.393C233.647 134.649 234.356 135.242 235.471 135.242C236.6 135.242 237.309 134.649 237.309 133.393V128.243H238.635V133.369C238.635 135.427 237.147 136.404 235.461 136.404C233.764 136.404 232.322 135.427 232.322 133.369V128.243H232.321ZM243.143 133.044H241.678V136.322H240.353V128.243H243.143C245.062 128.243 246.003 129.336 246.003 130.649C246.003 131.799 245.248 133.044 243.143 133.044ZM243.143 131.963C244.179 131.963 244.644 131.463 244.644 130.649C244.644 129.811 244.179 129.323 243.143 129.323H241.678V131.963H243.143ZM251.734 129.312H248.595V131.683H251.385V132.765H248.595V135.241H251.734V136.322H247.27V128.23H251.734V129.312ZM256.153 128.243C258.072 128.243 259.012 129.348 259.012 130.661C259.012 131.615 258.501 132.637 257.141 132.975L259.14 136.324H257.559L255.698 133.091H254.686V136.324H253.361V128.245H256.153V128.243ZM256.153 129.323H254.687V132.031H256.153C257.188 132.031 257.652 131.461 257.652 130.659C257.652 129.847 257.188 129.323 256.153 129.323ZM266.395 136.404C264.78 136.404 263.535 135.52 263.535 134.089H264.953C265.01 134.752 265.476 135.286 266.395 135.286C267.325 135.286 267.849 134.787 267.849 134.101C267.849 132.147 263.56 133.415 263.56 130.439C263.56 129.021 264.687 128.137 266.338 128.137C267.885 128.137 268.976 128.951 269.093 130.334H267.628C267.583 129.787 267.106 129.289 266.268 129.266C265.5 129.241 264.907 129.614 264.907 130.393C264.907 132.217 269.185 131.079 269.185 134.032C269.185 135.241 268.197 136.404 266.395 136.404ZM275.625 134.672H272.242L271.661 136.322H270.278L273.172 128.23H274.706L277.601 136.322H276.207L275.625 134.672ZM273.94 129.836L272.615 133.591H275.253L273.94 129.836ZM280.182 128.243V135.252H282.915V136.322H278.857V128.243H280.182ZM288.483 129.312H285.343V131.683H288.133V132.765H285.343V135.241H288.483V136.322H284.019V128.23H288.483V129.312Z" fill="#FBA31C"/>
<path d="M234.926 160.102H225.759V141.586H234.637C238.392 141.586 240.703 143.319 240.703 146.391C240.703 148.624 239.39 150.094 237.577 150.594C239.783 151.094 241.123 152.959 241.123 155.06C241.124 158.184 238.891 160.102 234.926 160.102ZM233.508 145.683H230.908V148.939H233.508C234.769 148.939 235.45 148.414 235.45 147.337C235.452 146.235 234.769 145.683 233.508 145.683ZM233.875 152.59H230.908V155.951H233.902C235.189 155.951 235.844 155.427 235.844 154.323C235.845 153.194 235.136 152.59 233.875 152.59ZM248.531 141.586V156.162H254.284V160.102H243.385V141.586H248.531ZM267.994 157.082H261.428L260.43 160.102H255.021L261.77 141.586H267.705L274.428 160.102H268.991L267.994 157.082ZM264.713 147.153L262.743 153.14H266.709L264.713 147.153ZM284.7 141.402C289.348 141.402 292.658 144.08 293.577 148.283H288.035C287.379 146.891 286.144 146.13 284.622 146.13C282.258 146.13 280.708 147.968 280.708 150.805C280.708 153.668 282.258 155.505 284.622 155.505C286.144 155.505 287.379 154.743 288.035 153.353H293.577C292.658 157.555 289.348 160.232 284.7 160.232C279.132 160.232 275.481 156.345 275.481 150.805C275.481 145.289 279.132 141.402 284.7 141.402ZM301.169 151.986V160.102H296.021V141.586H301.169V149.57L306.921 141.586H312.857L306.054 150.568L313.198 160.102H306.974L301.169 151.986ZM225.759 163.705H238.313V167.801H230.908V171.058H236.371V174.972H230.908V182.22H225.759V163.705ZM248.61 163.705C253.206 163.705 255.517 166.33 255.517 169.64C255.517 172.058 254.204 174.158 251.447 174.999L255.622 182.222H249.871L246.194 175.393H245.642V182.222H240.494V163.706H248.61V163.705ZM248.19 168.012H245.642V171.873H248.19C249.582 171.873 250.29 171.19 250.29 169.929C250.29 168.775 249.582 168.012 248.19 168.012ZM257.856 163.705H263.004V182.22H257.856V163.705ZM282.939 172.951C282.939 178.308 279.184 182.222 273.273 182.222H265.946V163.706H273.273C279.184 163.705 282.939 167.512 282.939 172.951ZM272.881 177.678C275.849 177.678 277.713 175.997 277.713 172.951C277.713 169.879 275.849 168.17 272.881 168.17H271.094V177.678H272.881ZM296.965 179.2H290.399L289.401 182.22H283.991L290.74 163.705H296.676L303.398 182.22H297.961L296.965 179.2ZM293.683 169.273L291.713 175.261H295.679L293.683 169.273ZM303.717 163.705H309.6L312.857 170.849L316.114 163.705H321.919L315.405 176.337V182.22H310.231V176.337L303.717 163.705Z" fill="#1F4168"/>
<path d="M245.908 188.378V196.027H232.647V200.933C233.751 199.783 235.785 198.988 238.173 198.988C244.848 198.988 247.677 204.115 247.677 209.508C247.677 216.448 243.566 220.692 236.494 220.692C228.979 220.692 224.647 216.537 224.601 210.745H233.046C233.178 211.939 234.018 213.265 236.139 213.265C238.305 213.265 239.277 211.628 239.277 209.374C239.277 207.032 238.085 205.838 236.007 205.838C234.328 205.838 233.399 206.812 233.221 207.916H224.778V188.378H245.908ZM264.175 187.715C273.459 187.715 277.04 194.523 277.04 204.071C277.04 213.752 273.459 220.515 264.175 220.515C254.892 220.515 251.357 213.752 251.357 204.071C251.357 194.523 254.892 187.715 264.175 187.715ZM264.175 195.895C260.331 195.895 259.888 199.607 259.888 204.073C259.888 208.669 260.331 212.339 264.175 212.339C268.022 212.339 268.463 208.669 268.463 204.073C268.465 199.607 268.022 195.895 264.175 195.895ZM287.526 188.954C291.901 188.954 295.173 191.519 295.173 196.69C295.173 201.817 291.901 204.425 287.526 204.425C283.15 204.425 279.834 201.817 279.834 196.69C279.836 191.517 283.15 188.954 287.526 188.954ZM285.67 196.69C285.67 198.503 286.333 199.341 287.483 199.341C288.633 199.341 289.384 198.501 289.384 196.69C289.384 194.877 288.633 194.037 287.483 194.037C286.333 194.037 285.67 194.877 285.67 196.69ZM302.91 189.44H311.22L294.467 220.692H286.157L302.91 189.44ZM309.894 205.663C314.27 205.663 317.497 208.272 317.497 213.399C317.497 218.572 314.27 221.179 309.894 221.179C305.518 221.179 302.203 218.572 302.203 213.399C302.203 208.272 305.517 205.663 309.894 205.663ZM307.993 213.399C307.993 215.254 308.656 216.096 309.85 216.096C310.954 216.096 311.705 215.254 311.705 213.399C311.705 211.63 310.954 210.746 309.85 210.746C308.656 210.746 307.993 211.63 307.993 213.399ZM234.089 243.38C229.4 243.38 225.603 239.864 225.603 234.894C225.603 229.923 229.4 226.43 234.089 226.43C238.802 226.43 242.553 229.923 242.553 234.894C242.553 239.864 238.779 243.38 234.089 243.38ZM234.089 239.114C236.456 239.114 237.887 237.45 237.887 234.894C237.887 232.292 236.456 230.652 234.089 230.652C231.698 230.652 230.292 232.292 230.292 234.894C230.292 237.448 231.698 239.114 234.089 239.114ZM244.626 226.688H255.831V230.345H249.221V233.252H254.098V236.746H249.221V243.215H244.626V226.688ZM257.784 226.688H268.991V230.345H262.38V233.252H267.256V236.746H262.38V243.215H257.784V226.688Z" fill="#FBA31C"/>
<defs>
<linearGradient id="paint0_linear_1_277" x1="-12.0684" y1="200.284" x2="514.241" y2="200.284" gradientUnits="userSpaceOnUse">
<stop stop-color="#D5B496"/>
<stop offset="0.523" stop-color="#D4B498"/>
<stop offset="0.712" stop-color="#CFB69F"/>
<stop offset="0.846" stop-color="#C6B8AA"/>
<stop offset="0.954" stop-color="#BABBBB"/>
<stop offset="1" stop-color="#B3BDC5"/>
</linearGradient>
<linearGradient id="paint1_linear_1_277" x1="-12.0558" y1="200.39" x2="514.248" y2="200.39" gradientUnits="userSpaceOnUse">
<stop stop-color="#D5B496"/>
<stop offset="0.523" stop-color="#D4B498"/>
<stop offset="0.712" stop-color="#CFB69F"/>
<stop offset="0.846" stop-color="#C6B8AA"/>
<stop offset="0.954" stop-color="#BABBBB"/>
<stop offset="1" stop-color="#B3BDC5"/>
</linearGradient>
<linearGradient id="paint2_linear_1_277" x1="-12.0675" y1="200.213" x2="514.259" y2="200.213" gradientUnits="userSpaceOnUse">
<stop stop-color="#D5B496"/>
<stop offset="0.523" stop-color="#D4B498"/>
<stop offset="0.712" stop-color="#CFB69F"/>
<stop offset="0.846" stop-color="#C6B8AA"/>
<stop offset="0.954" stop-color="#BABBBB"/>
<stop offset="1" stop-color="#B3BDC5"/>
</linearGradient>
<linearGradient id="paint3_linear_1_277" x1="-11.7783" y1="326.74" x2="513.706" y2="322.708" gradientUnits="userSpaceOnUse">
<stop stop-color="#D5B496"/>
<stop offset="0.523" stop-color="#D4B498"/>
<stop offset="0.712" stop-color="#CFB69F"/>
<stop offset="0.846" stop-color="#C6B8AA"/>
<stop offset="0.954" stop-color="#BABBBB"/>
<stop offset="1" stop-color="#B3BDC5"/>
</linearGradient>
</defs>
</svg>
