<svg width="66" height="66" viewBox="0 0 66 66" fill="none" xmlns="http://www.w3.org/2000/svg">
<circle cx="32.8051" cy="32.8053" r="25" transform="rotate(-21.5569 32.8051 32.8053)" fill="white" fill-opacity="0.1"/>
<circle cx="32.8051" cy="32.8053" r="24" transform="rotate(-21.5569 32.8051 32.8053)" stroke="black" stroke-opacity="0.85" stroke-width="2"/>
<g clip-path="url(#clip0_50_46)">
<path d="M26.7987 18.9606C32.0422 16.8891 37.9723 19.4606 40.0438 24.7041L41.5005 24.1286C42.2091 23.8487 43.0139 24.1616 43.3475 24.8467L50.3893 39.3129C50.7418 40.0372 50.4405 40.9099 49.7163 41.2625L49.6138 41.3075L25.4167 50.8668C24.6676 51.1628 23.8204 50.7954 23.5245 50.0463L23.4874 49.9407L18.7409 34.5677C18.5161 33.8396 18.8898 33.0612 19.5985 32.7812L21.0552 32.2057C18.9837 26.9622 21.5551 21.0321 26.7987 18.9606ZM41.3148 27.338L21.9261 34.9977L25.8086 47.576L47.0772 39.1736L41.3148 27.338ZM35.4055 32.8086L36.4771 35.5212L31.0518 37.6645L29.9801 34.9519L35.4055 32.8086ZM27.8703 21.6733C24.2235 23.114 22.3862 27.1677 23.6579 30.8374L23.7678 31.1341L37.3311 25.7758C35.8904 22.1289 31.8368 20.2916 28.167 21.5633L27.8703 21.6733Z" fill="black" fill-opacity="0.85"/>
</g>
<defs>
<clipPath id="clip0_50_46">
<rect width="35" height="35" fill="white" transform="translate(9.45068 22.678) rotate(-21.5569)"/>
</clipPath>
</defs>
</svg>
