<svg width="446" height="390" viewBox="0 0 446 390" fill="none" xmlns="http://www.w3.org/2000/svg">
<path d="M405.67 364.651L316.9 355.922L228.102 347.455C198.499 344.675 168.912 341.723 139.32 338.824C124.523 337.393 109.734 335.877 94.9439 334.366L56.1206 330.407C55.6744 330.37 55.1564 330.286 54.6657 330.216C54.1729 330.126 53.6838 330.017 53.1997 329.888C50.7795 329.203 48.5766 327.906 46.8032 326.123C45.0299 324.34 43.7456 322.131 43.0741 319.708C42.9459 319.229 42.845 318.725 42.7493 318.256L21.7767 198.904L6.1161 111.147L2.14111 89.2189L0.168149 78.2414C-0.279582 75.378 0.172015 72.4463 1.46075 69.85C2.74948 67.2537 4.81196 65.1206 7.36417 63.7443C9.06128 62.8524 10.9122 62.29 12.8189 62.087L23.8659 60.5715L266.83 26.8215L355.199 14.6822L421.489 5.67549C422.409 5.55161 423.304 5.41236 424.359 5.35085C424.867 5.30806 425.378 5.30492 425.887 5.34146L426.651 5.37563L427.409 5.48669C430.458 5.94176 433.292 7.33118 435.518 9.46336C437.744 11.5955 439.254 14.3654 439.838 17.3911C440.023 18.393 440.107 19.411 440.088 20.4297C440.097 20.9568 440.065 21.4105 440.04 21.8735L437.802 62.2032L435.281 106.703L430.016 195.69L424.641 284.671L420.793 351.417C420.726 353.3 420.275 355.15 419.469 356.853C418.663 358.556 417.517 360.077 416.103 361.323C414.687 362.567 413.03 363.504 411.235 364.077C409.439 364.65 407.545 364.845 405.67 364.651ZM405.696 364.397C407.533 364.579 409.388 364.38 411.144 363.812C412.901 363.244 414.52 362.319 415.902 361.095C417.279 359.872 418.392 358.382 419.173 356.714C419.954 355.047 420.386 353.238 420.444 351.397L423.93 284.632L428.331 195.597L432.843 106.569L435.211 62.0614L437.404 21.7283C437.429 21.2635 437.46 20.7903 437.446 20.3879C437.461 19.5496 437.392 18.7119 437.239 17.8874C436.756 15.4029 435.513 13.1293 433.683 11.3799C431.852 9.63055 429.524 8.49146 427.019 8.11958C425.296 7.91533 423.551 7.98249 421.849 8.31862L355.559 17.3287L267.155 29.21L23.995 61.5197L12.9445 63.007C11.1463 63.1901 9.3995 63.714 7.79757 64.5507C5.4056 65.8339 3.47057 67.8266 2.25899 70.2545C1.0474 72.6824 0.61886 75.4259 1.03239 78.1073L2.97458 89.0686L6.89486 111.006L22.8136 198.718L44.7693 317.892C44.8642 318.332 44.9488 318.738 45.0625 319.157C45.5339 320.809 46.3383 322.348 47.4264 323.679C48.5145 325.01 49.8633 326.104 51.39 326.895C52.9273 327.687 54.6099 328.158 56.3352 328.28L95.1687 332.139C109.963 333.605 124.757 335.069 139.543 336.616C169.119 339.673 198.7 342.678 228.263 345.854L316.966 355.256L405.696 364.397Z" fill="#FFE3C2"/>
<path d="M413.695 373.172L72.2523 338.798C69.3883 338.509 66.6962 337.296 64.5835 335.343C62.4707 333.389 61.0522 330.801 60.5427 327.97L18.4428 94.049C18.1264 92.291 18.1693 90.4873 18.5688 88.7463C18.9684 87.0053 19.7164 85.3631 20.7677 83.9187C21.8191 82.4742 23.1521 81.2573 24.6865 80.3412C26.2208 79.4251 27.9248 78.8288 29.6959 78.5882L430.969 24.0596C432.903 23.7969 434.871 23.9644 436.732 24.5502C438.594 25.136 440.303 26.1256 441.737 27.4481C443.171 28.7707 444.295 30.3937 445.029 32.2009C445.762 34.0081 446.087 35.955 445.98 37.9023L428.251 360.726C428.153 362.513 427.693 364.261 426.9 365.865C426.107 367.469 424.997 368.896 423.636 370.059C422.276 371.223 420.693 372.098 418.985 372.633C417.276 373.168 415.477 373.352 413.695 373.172Z" fill="#FFE3C2"/>
<path d="M164.177 45.6404C164.177 45.6404 167.623 39.2461 170.401 46.0812C173.179 52.9163 172.386 69.6875 165.578 56.201" fill="#FD8B66"/>
<path d="M166.419 68.5428C166.419 68.5428 166.795 65.9526 173.203 62.4518C179.612 58.9509 165.191 49.3078 177.385 44.1804C177.385 44.1804 178.468 53.4015 179.35 55.5851C180.231 57.7686 184.687 64.2013 180.322 69.3082C175.958 74.4151 165.683 83.1535 164.069 82.8366C159.882 82.0148 155.741 81.187 152.221 80.4771C146.523 79.3281 142.453 78.4883 142.453 78.4883C143.945 73.028 143.923 67.2652 142.391 61.8162C139.825 52.7864 141.369 39.0103 148.862 42.899C150.218 43.5107 151.38 44.483 152.221 45.7096C153.817 47.9495 155.12 51.7869 153.765 58.165C153.765 58.165 153.705 58.3017 153.593 58.511C152.941 59.7386 150.456 63.6486 147.016 59.326C147.016 59.326 146.702 58.2333 147.859 56.5188C148.191 56.0005 148.385 55.4063 148.423 54.7922C148.461 54.1782 148.342 53.5646 148.076 53.0094" fill="#FD8B66"/>
<path d="M153.593 58.511C153.705 58.3025 153.765 58.165 153.765 58.165C155.12 51.7869 153.817 47.9495 152.221 45.7096C152.38 45.3559 155.157 39.5853 158.055 45.0433C161.044 50.6636 162.141 69.4996 153.593 58.511Z" fill="#FD8B66"/>
<path d="M154.328 53.3195C154.328 53.3195 170.567 53.3776 173.803 55.6594C173.803 55.6594 177.896 61.9725 173.417 63.6768C168.939 65.3811 167.635 70.4487 167.635 70.4487L156.767 67.4878L151.425 57.2313L154.328 53.3195Z" fill="#FD8B66"/>
<path d="M158.057 45.0424C158.057 45.0424 160.657 37.6503 163.582 45.1022C166.507 52.5541 166.104 69.0579 159.982 59.1184" fill="#FD8B66"/>
<path d="M169.832 62.1622C167.879 62.1622 166.064 59.0611 164.815 56.5863L166.341 55.8174C168.432 59.9581 169.66 60.545 169.917 60.4305C171.31 59.7984 171.646 51.4119 169.61 46.4024C168.938 44.7511 168.181 43.8199 167.479 43.7806C166.522 43.7354 165.342 45.2833 164.928 46.047L163.423 45.2355C163.605 44.8989 165.264 41.9157 167.57 42.0746C169.012 42.1524 170.231 43.3919 171.193 45.76C172.951 50.0835 173.811 60.539 170.625 61.9853C170.377 62.1008 170.106 62.1611 169.832 62.1622Z" fill="#D04719"/>
<path d="M163.216 63.0788C161.417 63.0788 159.829 60.4989 159.254 59.5669L160.71 58.6699C162.244 61.1618 163.115 61.4437 163.317 61.3404C164.819 60.5912 165.07 51.2282 162.787 45.414C161.979 43.3569 161.232 42.6291 160.836 42.6291H160.83C160.174 42.6402 159.25 44.2317 158.862 45.3269L157.25 44.7588C157.473 44.1249 158.693 40.9589 160.799 40.9214L160.838 40.9205C162.197 40.9205 163.356 42.1874 164.378 44.7904C166.541 50.2971 167.21 61.3096 164.081 62.8695C163.813 63.0062 163.517 63.0779 163.216 63.0788Z" fill="#D04719"/>
<path d="M157.894 62.7559C155.813 62.7559 153.702 60.0418 152.918 59.0346L152.577 58.5964L152.839 58.1069C152.887 58.0172 152.925 57.9429 152.95 57.8925C153.973 52.9898 153.481 48.9507 151.525 46.2059L151.239 45.8044L151.442 45.3576C151.601 45.0065 153.061 41.9251 155.328 41.8551C156.632 41.8107 157.805 42.7521 158.81 44.6426C160.985 48.732 162.455 60.2435 159.162 62.374C158.786 62.6233 158.345 62.7562 157.894 62.7559ZM154.591 58.3931C156.509 60.7517 157.726 61.266 158.233 60.9397C160.165 59.6899 159.563 49.6974 157.3 45.4448C156.646 44.212 155.954 43.5269 155.382 43.5619C154.57 43.5876 153.681 44.7921 153.21 45.6464C154.672 47.9359 155.967 51.9151 154.601 58.3427L154.591 58.3931Z" fill="#D04719"/>
<path d="M143.265 78.7549L141.641 78.2235C143.066 72.9228 143.041 67.3371 141.568 62.0494C139.568 55.0076 139.943 45.4149 143.691 42.36C144.748 41.498 146.563 40.7608 149.217 42.1208C150.704 42.8001 151.981 43.8671 152.914 45.2098C154.489 47.4199 156.058 51.4888 154.601 58.3427L154.547 58.5118C154.547 58.5118 154.476 58.6716 154.347 58.9133C153.748 60.041 152.443 61.9648 150.445 62.1494C149.038 62.2775 147.66 61.5087 146.347 59.8582L146.241 59.7249L146.195 59.5626C146.151 59.4114 145.808 58.0292 147.151 56.0413C147.399 55.6506 147.544 55.2036 147.573 54.7418C147.602 54.28 147.514 53.8184 147.316 53.3998L148.834 52.6139C149.17 53.3055 149.323 54.0722 149.276 54.8398C149.23 55.6075 148.986 56.3502 148.569 56.9963C148.125 57.5635 147.867 58.254 147.831 58.9731C148.709 60.0222 149.543 60.516 150.288 60.4485C151.565 60.3306 152.562 58.6289 152.838 58.1103C152.886 58.0181 152.924 57.9429 152.949 57.8916C153.973 52.9898 153.481 48.9516 151.525 46.2059C150.778 45.1221 149.755 44.256 148.562 43.6986L148.468 43.6576C146.962 42.876 145.753 42.8836 144.772 43.6832C141.684 46.2008 141.402 55.2092 143.212 61.5821C144.805 67.1933 144.823 73.1339 143.265 78.7549ZM164.086 83.6917C164.025 83.6918 163.964 83.6861 163.904 83.6746L164.233 81.9985C165.729 81.8405 175.272 73.9025 179.673 68.7538C183.014 64.8446 180.615 60.0726 179.183 57.221C178.925 56.7084 178.703 56.2659 178.557 55.9054C177.829 54.1012 177.007 48.0341 176.68 45.449C171.662 48.0281 173.053 51.4948 174.52 55.1511C175.685 58.0556 177.007 61.348 173.614 63.2018C167.825 66.3627 167.265 68.6709 167.26 68.6948L165.572 68.4198C165.618 68.1122 166.2 65.3042 172.794 61.7017C174.668 60.6783 174.298 59.1901 172.933 55.7867C171.388 51.9364 169.273 46.6647 177.054 43.3928L178.102 42.9528L178.235 44.0805C178.532 46.6143 179.455 53.5621 180.142 55.2664C180.269 55.5774 180.471 55.9797 180.711 56.4547C182.119 59.2576 185.05 65.0915 180.972 69.8635C177.611 73.7966 166.872 83.6909 164.086 83.6917Z" fill="#D04719"/>
<path d="M360.614 23.459L372.999 0.88725C373.174 0.568507 373.446 0.313805 373.776 0.160162C374.105 0.00651846 374.475 -0.0380587 374.832 0.0329179C375.189 0.103894 375.514 0.286724 375.759 0.554824C376.005 0.822925 376.159 1.16233 376.198 1.52369L378.997 27.1136C379.03 27.4181 379.145 27.7079 379.329 27.9529C379.513 28.1979 379.759 28.389 380.042 28.5061C380.325 28.6233 380.635 28.6623 380.938 28.619C381.241 28.5757 381.527 28.4518 381.766 28.2601L401.853 12.1432C402.136 11.9157 402.485 11.7845 402.848 11.7686C403.212 11.7527 403.571 11.8531 403.873 12.055C404.175 12.257 404.405 12.55 404.53 12.8916C404.654 13.2332 404.666 13.6054 404.564 13.9543L397.351 38.6661C397.265 38.9601 397.26 39.2718 397.336 39.5685C397.412 39.8652 397.567 40.136 397.783 40.3526C398 40.5692 398.271 40.7235 398.568 40.7996C398.865 40.8756 399.177 40.8704 399.471 40.7847L424.2 33.5763C424.549 33.4744 424.921 33.4865 425.263 33.6107C425.605 33.7349 425.898 33.9648 426.1 34.267C426.302 34.5691 426.403 34.9278 426.387 35.2909C426.371 35.654 426.24 36.0026 426.012 36.286L409.884 56.359C409.692 56.5979 409.568 56.8838 409.525 57.187C409.481 57.4902 409.52 57.7994 409.638 58.0823C409.755 58.3652 409.946 58.6115 410.191 58.7953C410.436 58.979 410.726 59.0936 411.031 59.1269L436.638 61.9238C437 61.9633 437.339 62.117 437.608 62.3625C437.876 62.608 438.059 62.9326 438.13 63.2891C438.201 63.6456 438.156 64.0154 438.002 64.3447C437.848 64.6741 437.593 64.9458 437.274 65.1205L414.688 77.4973C414.419 77.6446 414.195 77.8614 414.038 78.125C413.882 78.3886 413.8 78.6893 413.8 78.9958C413.8 79.3022 413.882 79.6029 414.038 79.8665C414.195 80.1302 414.419 80.3469 414.688 80.4942L437.274 92.871C437.593 93.0457 437.848 93.3174 438.002 93.6468C438.156 93.9761 438.201 94.3459 438.13 94.7024C438.059 95.0589 437.876 95.3835 437.608 95.629C437.339 95.8745 437 96.0282 436.638 96.0677L411.031 98.8646C410.726 98.8979 410.436 99.0125 410.191 99.1962C409.946 99.38 409.755 99.6262 409.638 99.9092C409.52 100.192 409.481 100.501 409.525 100.805C409.568 101.108 409.692 101.394 409.884 101.632L426.012 121.705C426.24 121.989 426.371 122.337 426.387 122.701C426.403 123.064 426.302 123.422 426.1 123.725C425.898 124.027 425.605 124.257 425.263 124.381C424.921 124.505 424.549 124.517 424.2 124.415L399.471 117.208C399.177 117.122 398.865 117.117 398.568 117.193C398.271 117.269 398 117.423 397.783 117.64C397.567 117.856 397.412 118.127 397.336 118.424C397.26 118.721 397.265 119.032 397.351 119.326L404.564 144.039C404.666 144.388 404.654 144.76 404.53 145.102C404.405 145.443 404.175 145.736 403.873 145.938C403.571 146.14 403.212 146.24 402.848 146.225C402.485 146.209 402.136 146.077 401.853 145.85L381.767 129.731C381.528 129.54 381.242 129.416 380.939 129.372C380.635 129.329 380.326 129.368 380.043 129.485C379.76 129.603 379.513 129.794 379.329 130.039C379.146 130.284 379.031 130.573 378.998 130.878L376.199 156.469C376.159 156.83 376.006 157.169 375.76 157.437C375.514 157.705 375.189 157.888 374.833 157.959C374.476 158.03 374.106 157.985 373.776 157.831C373.447 157.678 373.175 157.423 373 157.104L360.615 134.532C360.468 134.264 360.251 134.04 359.987 133.883C359.723 133.727 359.422 133.645 359.116 133.645C358.809 133.645 358.508 133.727 358.245 133.883C357.981 134.04 357.764 134.264 357.616 134.532L345.232 157.104C345.057 157.423 344.785 157.678 344.455 157.831C344.126 157.985 343.756 158.03 343.399 157.959C343.042 157.888 342.717 157.705 342.472 157.437C342.226 157.169 342.072 156.83 342.033 156.469L339.234 130.878C339.201 130.573 339.086 130.284 338.902 130.039C338.718 129.794 338.472 129.603 338.189 129.485C337.906 129.368 337.596 129.329 337.293 129.372C336.99 129.416 336.703 129.54 336.464 129.731L316.378 145.849C316.095 146.077 315.746 146.208 315.383 146.224C315.019 146.24 314.66 146.139 314.358 145.937C314.056 145.735 313.825 145.442 313.701 145.101C313.577 144.759 313.565 144.387 313.667 144.038L320.88 119.325C320.966 119.031 320.971 118.72 320.895 118.423C320.819 118.126 320.664 117.855 320.447 117.639C320.231 117.422 319.96 117.268 319.663 117.192C319.366 117.116 319.054 117.121 318.76 117.207L294.031 124.415C293.682 124.517 293.31 124.505 292.968 124.381C292.626 124.257 292.333 124.027 292.131 123.725C291.928 123.422 291.828 123.064 291.844 122.701C291.86 122.337 291.991 121.989 292.219 121.705L308.347 101.632C308.539 101.394 308.663 101.108 308.706 100.805C308.75 100.501 308.711 100.192 308.593 99.9092C308.476 99.6262 308.285 99.38 308.04 99.1962C307.795 99.0125 307.505 98.8979 307.2 98.8646L281.593 96.0677C281.232 96.0283 280.892 95.8748 280.624 95.6293C280.355 95.3838 280.173 95.0593 280.102 94.7028C280.03 94.3463 280.075 93.9764 280.229 93.647C280.383 93.3176 280.637 93.0457 280.956 92.871L303.544 80.4942C303.813 80.3469 304.037 80.1302 304.193 79.8665C304.35 79.6029 304.432 79.3022 304.432 78.9958C304.432 78.6893 304.35 78.3886 304.193 78.125C304.037 77.8614 303.813 77.6446 303.544 77.4973L280.956 65.1205C280.637 64.9458 280.383 64.674 280.229 64.3445C280.075 64.0151 280.03 63.6452 280.102 63.2887C280.173 62.9322 280.355 62.6077 280.624 62.3622C280.892 62.1167 281.232 61.9632 281.593 61.9238L307.2 59.1269C307.505 59.0936 307.795 58.979 308.04 58.7953C308.285 58.6115 308.476 58.3652 308.593 58.0823C308.711 57.7994 308.75 57.4902 308.706 57.187C308.663 56.8838 308.539 56.5979 308.347 56.359L292.22 36.286C291.992 36.0026 291.861 35.654 291.845 35.2909C291.829 34.9278 291.929 34.5691 292.131 34.267C292.334 33.9648 292.627 33.7349 292.969 33.6107C293.31 33.4865 293.683 33.4744 294.032 33.5763L318.76 40.7847C319.054 40.8704 319.366 40.8756 319.663 40.7996C319.96 40.7235 320.231 40.5692 320.447 40.3526C320.664 40.136 320.819 39.8652 320.895 39.5685C320.971 39.2718 320.966 38.9601 320.88 38.6661L313.667 13.9535C313.565 13.6046 313.577 13.2323 313.701 12.8907C313.825 12.5492 314.056 12.2561 314.358 12.0542C314.66 11.8522 315.019 11.7519 315.383 11.7677C315.746 11.7836 316.095 11.9148 316.378 12.1424L336.464 28.2601C336.703 28.4518 336.99 28.5757 337.293 28.619C337.596 28.6623 337.906 28.6233 338.189 28.5061C338.472 28.389 338.718 28.1979 338.902 27.9529C339.086 27.7079 339.201 27.4181 339.234 27.1136L342.033 1.52369C342.072 1.16233 342.226 0.822925 342.471 0.554824C342.717 0.286724 343.042 0.103894 343.399 0.0329179C343.755 -0.0380587 344.125 0.00651846 344.455 0.160162C344.785 0.313805 345.057 0.568507 345.232 0.88725L357.616 23.4599C357.764 23.7286 357.981 23.9528 358.245 24.1089C358.508 24.2651 358.809 24.3475 359.116 24.3475C359.422 24.3475 359.723 24.2651 359.987 24.1089C360.251 23.9528 360.468 23.7286 360.615 23.4599L360.614 23.459Z" fill="#E8233B"/>
<path d="M81.4204 178.406L87.494 167.337C87.5794 167.18 87.7128 167.055 87.8745 166.979C88.0362 166.904 88.2179 166.882 88.393 166.916C88.5682 166.951 88.7276 167.041 88.8481 167.173C88.9685 167.304 89.0437 167.471 89.0626 167.649L90.4346 180.198C90.4507 180.348 90.5068 180.49 90.597 180.61C90.6872 180.731 90.8082 180.825 90.9473 180.882C91.0863 180.94 91.2383 180.959 91.3873 180.937C91.5363 180.916 91.6767 180.855 91.7938 180.76L101.643 172.856C101.782 172.744 101.953 172.68 102.132 172.672C102.31 172.664 102.486 172.713 102.635 172.812C102.783 172.911 102.896 173.055 102.957 173.223C103.017 173.391 103.023 173.574 102.973 173.745L99.4352 185.863C99.393 186.007 99.3903 186.16 99.4275 186.305C99.4647 186.451 99.5405 186.584 99.6468 186.69C99.7531 186.796 99.8861 186.872 100.032 186.909C100.177 186.946 100.33 186.944 100.475 186.902L112.601 183.367C112.773 183.316 112.956 183.321 113.124 183.382C113.292 183.443 113.436 183.556 113.536 183.704C113.635 183.853 113.684 184.029 113.676 184.207C113.668 184.386 113.603 184.557 113.49 184.696L105.582 194.539C105.487 194.656 105.426 194.796 105.404 194.945C105.383 195.094 105.402 195.246 105.459 195.385C105.517 195.524 105.611 195.645 105.731 195.735C105.852 195.825 105.994 195.881 106.144 195.897L118.702 197.268C118.879 197.287 119.046 197.363 119.178 197.483C119.309 197.603 119.399 197.763 119.434 197.938C119.468 198.113 119.446 198.294 119.371 198.456C119.295 198.617 119.169 198.75 119.013 198.836L107.937 204.905C107.805 204.978 107.695 205.084 107.619 205.213C107.542 205.342 107.501 205.49 107.501 205.64C107.501 205.79 107.542 205.938 107.619 206.067C107.695 206.197 107.805 206.303 107.937 206.375L119.013 212.444C119.169 212.529 119.295 212.662 119.371 212.824C119.446 212.986 119.468 213.167 119.433 213.342C119.399 213.517 119.309 213.676 119.177 213.797C119.045 213.917 118.878 213.992 118.701 214.011L106.143 215.383C105.994 215.399 105.851 215.456 105.731 215.546C105.611 215.636 105.517 215.757 105.46 215.896C105.402 216.034 105.383 216.186 105.405 216.335C105.426 216.483 105.487 216.624 105.582 216.741L113.49 226.584C113.603 226.723 113.668 226.894 113.676 227.072C113.684 227.251 113.635 227.427 113.536 227.575C113.436 227.724 113.292 227.837 113.124 227.897C112.956 227.958 112.773 227.964 112.601 227.913L100.475 224.378C100.33 224.336 100.177 224.333 100.032 224.37C99.8861 224.407 99.7531 224.483 99.6468 224.589C99.5405 224.696 99.4647 224.828 99.4275 224.974C99.3903 225.12 99.393 225.273 99.4352 225.417L102.973 237.535C103.023 237.706 103.017 237.889 102.957 238.056C102.896 238.224 102.783 238.368 102.635 238.467C102.486 238.566 102.31 238.616 102.132 238.608C101.953 238.6 101.782 238.535 101.643 238.423L91.793 230.519C91.6759 230.425 91.5355 230.364 91.3867 230.343C91.2378 230.321 91.086 230.34 90.947 230.398C90.8081 230.455 90.6872 230.549 90.597 230.669C90.5069 230.79 90.4508 230.932 90.4346 231.081L89.0626 243.631C89.0437 243.808 88.9685 243.975 88.8481 244.107C88.7276 244.238 88.5682 244.328 88.393 244.363C88.2179 244.398 88.0362 244.376 87.8745 244.3C87.7128 244.225 87.5794 244.099 87.494 243.943L81.4204 232.874C81.3483 232.742 81.242 232.632 81.1126 232.555C80.9833 232.478 80.8356 232.438 80.6852 232.438C80.5348 232.438 80.3872 232.478 80.2579 232.555C80.1285 232.632 80.0222 232.742 79.9501 232.874L73.8764 243.943C73.7908 244.099 73.6575 244.224 73.4959 244.299C73.3344 244.375 73.1529 244.397 72.978 244.362C72.8031 244.327 72.6439 244.237 72.5235 244.106C72.4031 243.974 72.3279 243.808 72.3087 243.631L70.9358 231.081C70.9196 230.932 70.8636 230.79 70.7734 230.669C70.6833 230.549 70.5624 230.455 70.4234 230.398C70.2845 230.34 70.1326 230.321 69.9838 230.343C69.8349 230.364 69.6946 230.425 69.5775 230.519L59.728 238.423C59.5891 238.535 59.4178 238.6 59.2393 238.609C59.0608 238.617 58.8843 238.567 58.7357 238.468C58.5871 238.369 58.4742 238.225 58.4134 238.057C58.3527 237.889 58.3472 237.706 58.3979 237.535L61.9352 225.417C61.9777 225.272 61.9805 225.119 61.9434 224.974C61.9062 224.828 61.8305 224.695 61.7242 224.589C61.6178 224.482 61.4848 224.407 61.339 224.369C61.1932 224.332 61.0401 224.335 60.8957 224.377L48.769 227.913C48.5977 227.964 48.4146 227.958 48.2465 227.897C48.0784 227.837 47.9342 227.724 47.8349 227.575C47.7356 227.427 47.6864 227.251 47.6945 227.072C47.7026 226.894 47.7676 226.723 47.88 226.584L55.7898 216.741C55.8844 216.624 55.9456 216.483 55.9671 216.334C55.9886 216.185 55.9695 216.033 55.9118 215.894C55.8542 215.755 55.7601 215.634 55.6395 215.544C55.5189 215.454 55.3762 215.398 55.2265 215.382L42.6689 214.011C42.4914 213.992 42.3247 213.917 42.193 213.796C42.0612 213.676 41.9715 213.517 41.9367 213.342C41.902 213.167 41.9241 212.985 41.9999 212.824C42.0756 212.662 42.201 212.529 42.3578 212.444L53.4339 206.374C53.5659 206.302 53.676 206.196 53.7527 206.066C53.8295 205.937 53.8699 205.79 53.8699 205.639C53.8699 205.489 53.8295 205.341 53.7527 205.212C53.676 205.083 53.5659 204.977 53.4339 204.905L42.3578 198.836C42.201 198.75 42.0756 198.617 41.9999 198.456C41.9242 198.294 41.9021 198.112 41.937 197.937C41.9718 197.762 42.0617 197.603 42.1935 197.483C42.3253 197.362 42.4922 197.287 42.6698 197.268L55.2273 195.896C55.3768 195.88 55.5192 195.824 55.6396 195.734C55.7599 195.644 55.8538 195.523 55.9113 195.384C55.9689 195.245 55.988 195.094 55.9666 194.945C55.9452 194.796 55.8841 194.656 55.7898 194.539L47.8809 184.696C47.7685 184.557 47.7035 184.386 47.6954 184.207C47.6872 184.029 47.7364 183.853 47.8357 183.704C47.9351 183.556 48.0793 183.443 48.2473 183.382C48.4154 183.321 48.5985 183.316 48.7699 183.367L60.8957 186.902C61.0401 186.945 61.1932 186.947 61.339 186.91C61.4848 186.873 61.6178 186.797 61.7242 186.691C61.8305 186.584 61.9062 186.451 61.9434 186.306C61.9805 186.16 61.9777 186.007 61.9352 185.863L58.3979 173.745C58.3472 173.573 58.3527 173.391 58.4134 173.223C58.4742 173.055 58.5871 172.91 58.7357 172.811C58.8843 172.712 59.0608 172.663 59.2393 172.671C59.4178 172.679 59.5891 172.744 59.728 172.856L69.5775 180.76C69.6946 180.854 69.8349 180.915 69.9838 180.937C70.1326 180.958 70.2845 180.939 70.4234 180.882C70.5624 180.824 70.6833 180.73 70.7734 180.61C70.8636 180.49 70.9196 180.347 70.9358 180.198L72.3087 167.649C72.3279 167.471 72.4031 167.305 72.5235 167.174C72.6439 167.042 72.8031 166.952 72.978 166.918C73.1529 166.883 73.3344 166.905 73.4959 166.98C73.6575 167.056 73.7908 167.18 73.8764 167.337L79.9501 178.406C80.0222 178.538 80.1285 178.648 80.2579 178.724C80.3872 178.801 80.5348 178.842 80.6852 178.842C80.8356 178.842 80.9833 178.801 81.1126 178.724C81.242 178.648 81.3483 178.538 81.4204 178.406Z" fill="#FFB957"/>
<path d="M262.676 158.395C261.764 162.335 260.969 165.606 259.924 165.904C257.43 166.618 259.568 154.863 257.43 149.164C255.291 143.465 251.013 141.327 252.796 130.997C254.578 120.668 247.093 122.449 243.528 123.161C239.964 123.874 231.41 131.71 219.648 126.367C207.885 121.024 201.827 133.847 201.827 133.847C201.827 133.847 191.847 186.565 201.827 196.538C211.807 206.511 217.973 204.73 217.973 204.73C217.973 204.73 217.51 218.266 215.727 218.266C215.727 218.266 220.717 240.706 260.281 213.279C260.281 213.279 259.568 179.084 262.776 178.372C265.984 177.659 273.201 172.316 271.864 165.104C270.528 157.89 262.676 158.395 262.676 158.395Z" fill="#FD8B66"/>
<path d="M201.827 133.847C201.827 133.847 207.886 121.025 219.648 126.367C231.41 131.71 239.964 123.874 243.528 123.161C247.092 122.449 254.579 120.668 252.796 130.997C251.014 141.327 255.292 143.465 257.43 149.164C259.568 154.863 257.429 166.617 259.925 165.905C262.421 165.193 263.489 147.545 268.123 144.258C272.757 140.97 272.388 136.877 270.796 134.203C270.796 134.203 279.172 119.421 261.529 119.243C261.529 119.243 262.241 110.872 252.083 109.982C252.083 109.982 252.083 100.365 238.895 102.68C238.895 102.68 223.212 92.7069 215.906 106.42C215.906 106.42 209.133 104.283 203.075 114.256C197.017 124.229 193.629 120.49 192.737 126.367C191.846 132.245 194.876 138.3 201.827 133.847Z" fill="#5E1212"/>
<path d="M215.727 142.716C215.6 142.716 215.475 142.687 215.36 142.633C208.82 139.528 204.64 142.429 204.466 142.553C204.283 142.687 204.054 142.742 203.83 142.706C203.606 142.671 203.406 142.548 203.272 142.365C203.139 142.181 203.084 141.953 203.119 141.729C203.155 141.505 203.278 141.304 203.461 141.171C203.666 141.02 208.59 137.528 216.094 141.089C216.27 141.172 216.412 141.312 216.497 141.487C216.582 141.662 216.605 141.86 216.562 142.05C216.52 142.239 216.413 142.408 216.261 142.529C216.109 142.65 215.922 142.716 215.727 142.716ZM244.775 142.716C244.618 142.715 244.463 142.672 244.329 142.589C239.294 139.506 233.136 142.59 233.074 142.621C232.873 142.719 232.642 142.735 232.429 142.665C232.217 142.594 232.04 142.444 231.938 142.245C231.835 142.046 231.815 141.815 231.882 141.601C231.948 141.387 232.095 141.208 232.292 141.102C232.578 140.955 239.355 137.54 245.223 141.133C245.382 141.23 245.504 141.376 245.572 141.55C245.64 141.723 245.65 141.914 245.599 142.093C245.548 142.273 245.441 142.43 245.292 142.543C245.143 142.655 244.962 142.716 244.775 142.716ZM215.726 154.827C215.594 154.826 215.464 154.795 215.345 154.736C209.866 151.997 206.225 154.551 206.074 154.662C205.891 154.789 205.665 154.84 205.445 154.803C205.226 154.766 205.029 154.646 204.897 154.466C204.765 154.287 204.708 154.063 204.739 153.843C204.77 153.622 204.885 153.422 205.061 153.286C205.246 153.149 209.656 149.984 216.109 153.208C216.282 153.294 216.42 153.436 216.502 153.61C216.584 153.785 216.604 153.982 216.56 154.169C216.516 154.357 216.409 154.524 216.258 154.643C216.106 154.762 215.919 154.827 215.726 154.827ZM232.685 154.148C232.52 154.149 232.358 154.101 232.22 154.011C232.081 153.921 231.971 153.793 231.904 153.642C231.837 153.491 231.816 153.324 231.842 153.161C231.868 152.998 231.942 152.846 232.053 152.724C232.185 152.581 235.344 149.249 242.74 151.82C242.848 151.855 242.948 151.911 243.034 151.986C243.12 152.06 243.19 152.15 243.24 152.252C243.291 152.354 243.32 152.465 243.328 152.578C243.335 152.691 243.319 152.805 243.282 152.912C243.245 153.019 243.186 153.118 243.111 153.202C243.035 153.287 242.943 153.355 242.84 153.404C242.737 153.452 242.626 153.48 242.513 153.485C242.399 153.49 242.286 153.473 242.179 153.433C235.921 151.259 233.411 153.775 233.308 153.884C233.227 153.967 233.131 154.034 233.024 154.079C232.917 154.125 232.802 154.148 232.685 154.148Z" fill="#5E1212"/>
<path d="M223.212 147.383C222.672 149.892 221.995 152.371 221.184 154.806C220.419 157.236 219.561 159.622 218.706 161.994C218.274 163.17 217.852 164.349 217.44 165.532C217.235 166.115 217.046 166.704 216.877 167.27C216.795 167.552 216.723 167.836 216.671 168.088C216.645 168.208 216.621 168.335 216.613 168.411C216.604 168.458 216.606 168.471 216.596 168.474C216.56 168.39 216.511 168.312 216.45 168.243C216.414 168.202 216.372 168.166 216.326 168.136L216.343 168.145L216.374 168.168C216.402 168.183 216.391 168.211 216.45 168.23C216.55 168.278 216.653 168.32 216.758 168.354C216.997 168.433 217.276 168.482 217.559 168.546C218.162 168.644 218.77 168.711 219.38 168.745C220.633 168.845 221.91 168.862 223.212 168.933C221.995 169.407 220.736 169.765 219.451 170C218.789 170.114 218.121 170.188 217.451 170.222C217.086 170.234 216.721 170.214 216.36 170.162C216.153 170.129 215.949 170.083 215.749 170.022C215.628 169.984 215.511 169.934 215.4 169.872L215.221 169.78L215.134 169.731C215.059 169.674 214.989 169.609 214.926 169.538C214.763 169.347 214.65 169.119 214.597 168.874C214.566 168.738 214.546 168.601 214.537 168.462C214.523 168.252 214.522 168.041 214.535 167.831C214.562 167.476 214.608 167.122 214.672 166.771C214.784 166.096 214.949 165.459 215.113 164.824C215.453 163.559 215.861 162.334 216.295 161.122C217.173 158.711 218.188 156.352 219.336 154.057C220.454 151.736 221.75 149.504 223.212 147.383ZM221.609 179.796C222.695 179.47 223.761 179.079 224.801 178.626C225.697 178.231 226.53 177.707 227.273 177.07C228.014 176.424 228.666 175.683 229.211 174.866C229.547 174.456 229.76 173.957 230.106 173.494C230.393 172.965 230.709 172.453 231.054 171.96C231.212 172.568 231.302 173.191 231.324 173.818C231.309 174.454 231.217 175.085 231.048 175.698C230.691 176.992 229.954 178.149 228.933 179.022C227.907 179.902 226.635 180.444 225.289 180.575C224.011 180.72 222.719 180.447 221.609 179.796ZM217.973 204.73C217.973 204.73 234.618 202.415 239.608 197.072C237.515 201.279 234.38 204.88 230.499 207.532C226.619 210.185 222.124 211.799 217.442 212.223L217.973 204.73ZM265.984 163.233C266.848 164.019 267.521 164.991 267.953 166.075C268.424 167.179 268.643 168.375 268.593 169.574C268.56 170.237 268.411 170.889 268.152 171.5C267.87 172.167 267.408 172.742 266.818 173.162C266.28 173.525 265.654 173.737 265.006 173.776C264.357 173.815 263.71 173.68 263.132 173.384C264.042 173.026 264.843 172.438 265.456 171.677C265.838 170.989 266.037 170.215 266.034 169.428C266.087 168.54 266.038 167.556 265.995 166.529C265.933 165.431 265.929 164.331 265.984 163.233Z" fill="#D04719"/>
<path d="M298.419 234.651C289.865 228.596 260.281 213.279 260.281 213.279C220.717 240.706 215.727 218.266 215.727 218.266C217.51 218.266 217.973 204.73 217.973 204.73C217.973 204.73 211.806 206.512 201.827 196.538C201.637 196.345 201.458 196.142 201.29 195.93L162.262 151.703L168.144 83.6234L138.737 77.7459C138.737 77.7459 118.421 152.547 121.629 169.408C124.837 186.268 189.707 256.023 189.707 256.023C182.578 283.093 169.034 388.883 169.034 388.883H280.953C280.953 388.883 280.953 363.238 282.378 347.92C283.803 332.603 304.834 292.71 309.823 273.476C314.813 254.242 306.973 240.706 298.419 234.651Z" fill="#376F92"/>
<path d="M259.568 252.461L226.331 317.644L177.233 260.475C177.233 260.475 146.758 277.572 147.293 280.244C147.828 282.915 203.661 398.322 232.684 383.362C261.706 368.402 291.646 309.629 291.646 309.629L309.823 273.476" fill="#376F92"/>
<path d="M124.539 80.3711C123.156 81.1037 122.013 82.2173 121.244 83.5798C120.511 82.1976 119.397 81.0544 118.034 80.2857C119.417 79.5535 120.561 78.4402 121.33 77.0779C122.063 78.46 123.176 79.6023 124.539 80.3711ZM291.202 204.69C289.819 205.422 288.675 206.536 287.905 207.898C287.173 206.516 286.059 205.373 284.696 204.604C286.079 203.872 287.223 202.759 287.992 201.397C288.725 202.779 289.839 203.922 291.202 204.69Z" fill="#78C1D0"/>
<path d="M93.5463 270.603C92.1631 271.335 91.0192 272.449 90.25 273.811C89.5174 272.429 88.4037 271.286 87.0409 270.518C88.4237 269.785 89.5674 268.672 90.3363 267.31C91.0692 268.692 92.1832 269.835 93.5463 270.603ZM193.584 90.778C190.601 92.3574 188.135 94.7582 186.476 97.6959C184.896 94.7153 182.494 92.2501 179.554 90.5926C182.536 89.0133 185.003 86.6124 186.662 83.6746C188.242 86.6552 190.644 89.1204 193.584 90.778Z" fill="#E6560F"/>
<path d="M311.383 183.021C308.401 184.601 305.935 187.001 304.276 189.938C302.696 186.958 300.294 184.493 297.354 182.835C300.336 181.256 302.803 178.856 304.462 175.918C306.042 178.899 308.444 181.364 311.383 183.021Z" fill="#FFB957"/>
<path d="M129.562 306.276C124.661 308.871 120.607 312.816 117.881 317.644C115.284 312.746 111.336 308.694 106.506 305.97C111.407 303.375 115.46 299.43 118.186 294.602C120.783 299.501 124.731 303.552 129.562 306.276Z" fill="#78C1D0"/>
<path d="M179.802 118.532C178.953 118.981 178.251 119.664 177.778 120.5C177.329 119.652 176.645 118.951 175.809 118.479C176.658 118.029 177.36 117.346 177.831 116.51C178.281 117.358 178.965 118.06 179.802 118.532ZM329.572 212.249C328.723 212.698 328.021 213.382 327.549 214.218C327.099 213.37 326.416 212.668 325.579 212.197C326.428 211.747 327.13 211.064 327.602 210.228C328.052 211.076 328.736 211.777 329.572 212.249ZM143.236 329.43C142.387 329.88 141.686 330.563 141.214 331.399C140.764 330.551 140.081 329.849 139.244 329.377C140.093 328.928 140.795 328.245 141.267 327.409C141.716 328.257 142.4 328.959 143.236 329.43ZM209.017 78.3602C208.168 78.8094 207.466 79.4925 206.993 80.3284C206.544 79.4804 205.86 78.7789 205.024 78.3072C205.873 77.8576 206.574 77.1742 207.046 76.3381C207.496 77.1866 208.18 77.8883 209.017 78.3602Z" fill="#FFB957"/>
<path d="M325.579 149.404C324.73 149.853 324.028 150.537 323.556 151.373C323.106 150.525 322.423 149.823 321.586 149.352C322.435 148.902 323.137 148.219 323.609 147.383C324.059 148.231 324.743 148.932 325.579 149.404ZM93.5463 331.425C92.6975 331.875 91.9956 332.558 91.5237 333.394C91.0738 332.546 90.39 331.845 89.5533 331.373C90.402 330.923 91.104 330.24 91.5759 329.404C92.0258 330.252 92.7096 330.954 93.5463 331.425Z" fill="#E6560F"/>
<path d="M189.708 256.022C189.708 256.022 193.807 229.218 199.42 220.937C191.046 227.902 185.021 237.276 182.165 247.784L189.708 256.022ZM246.866 277.371L217.973 307.912L226.331 317.644L246.866 277.371Z" fill="#133852"/>
<path d="M328.981 81.6936C327.935 81.3376 326.985 80.9754 326.129 80.6069C325.331 80.2736 324.586 79.8237 323.92 79.2717C323.309 78.7595 322.816 78.1212 322.476 77.4008C322.109 76.5657 321.932 75.6592 321.96 74.7474C321.931 73.812 322.128 72.8836 322.535 72.0405C322.941 71.1974 323.544 70.4644 324.294 69.9036C325.85 68.6928 328.03 68.0874 330.834 68.0874C331.788 68.0823 332.742 68.1538 333.685 68.301C334.467 68.4146 335.229 68.6363 335.949 68.9597C336.526 69.2158 337.033 69.6066 337.428 70.0993C337.785 70.5634 337.974 71.1352 337.963 71.7207C337.979 72.2794 337.83 72.8305 337.535 73.3054C337.258 73.7361 336.908 74.1156 336.501 74.4271C335.845 74.0384 335.137 73.7448 334.398 73.5548C333.458 73.2974 332.486 73.1715 331.511 73.1807C330.702 73.1263 329.892 73.2795 329.159 73.6257C328.943 73.7264 328.76 73.8842 328.628 74.082C328.496 74.2798 328.421 74.5099 328.411 74.7474C328.409 74.92 328.451 75.0903 328.532 75.2428C328.613 75.3953 328.73 75.5251 328.874 75.6205C329.301 75.9012 329.77 76.1117 330.263 76.2441L332.153 76.8489C334.046 77.377 335.803 78.3065 337.304 79.5741C337.91 80.1519 338.385 80.8535 338.695 81.6311C339.006 82.4088 339.145 83.2442 339.103 84.0804C339.126 85.0281 338.921 85.9674 338.506 86.8195C338.09 87.6717 337.477 88.4119 336.716 88.978C335.123 90.2253 332.782 90.8486 329.694 90.848C328.672 90.8542 327.652 90.7647 326.647 90.5806C325.795 90.4309 324.968 90.1674 324.187 89.7973C323.549 89.5026 322.987 89.0637 322.548 88.515C322.157 88.0107 321.95 87.3891 321.96 86.7517C321.943 86.1103 322.158 85.4844 322.566 84.9885C322.93 84.5345 323.377 84.1536 323.884 83.866C324.628 84.433 325.45 84.8891 326.325 85.22C327.331 85.608 328.401 85.8014 329.48 85.7898C330.335 85.8652 331.193 85.679 331.94 85.2559C332.151 85.1215 332.326 84.9377 332.451 84.7204C332.575 84.5031 332.644 84.2588 332.653 84.0087C332.662 83.7933 332.614 83.5793 332.514 83.3884C332.413 83.1975 332.264 83.0366 332.082 82.922C331.578 82.6158 331.04 82.3709 330.478 82.1925L328.981 81.6936ZM347.229 69.3338C347.81 69.0295 348.427 68.8018 349.066 68.6564C349.874 68.4442 350.707 68.3366 351.543 68.336C352.617 68.3173 353.685 68.4924 354.697 68.8529C355.095 68.9723 355.46 69.1802 355.765 69.4609C356.071 69.7415 356.309 70.0877 356.462 70.4734C356.889 71.7082 357.352 73.1448 357.852 74.7833C358.351 76.4218 358.849 78.1138 359.348 79.8594C359.847 81.6044 360.334 83.3261 360.809 85.0244C361.285 86.7216 361.701 88.2234 362.057 89.5299C361.707 89.9045 361.265 90.1807 360.774 90.3312C360.119 90.5463 359.432 90.6488 358.742 90.6345C358.257 90.643 357.773 90.5951 357.299 90.4918C356.952 90.4174 356.625 90.2719 356.337 90.0646C356.079 89.8654 355.872 89.6093 355.73 89.3163C355.562 88.9731 355.425 88.6158 355.32 88.2485L354.679 85.7898H348.228C348.037 86.5023 347.847 87.2384 347.658 87.9981C347.467 88.7584 347.277 89.4946 347.087 90.2065C346.743 90.3286 346.392 90.4298 346.036 90.5097C345.596 90.5997 345.148 90.6416 344.699 90.6345C343.76 90.703 342.821 90.4855 342.008 90.0108C341.728 89.8201 341.501 89.5616 341.349 89.2596C341.196 88.9575 341.122 88.6217 341.134 88.2835C341.135 87.9459 341.183 87.61 341.277 87.2857C341.372 86.9536 341.479 86.5618 341.598 86.1102C341.764 85.4695 341.996 84.6741 342.293 83.7242C342.59 82.7748 342.917 81.7477 343.274 80.6428C343.63 79.5385 344.009 78.4046 344.414 77.2411C344.818 76.0775 345.198 74.9792 345.555 73.9461C345.911 72.9136 346.238 71.9935 346.534 71.1859C346.831 70.3789 347.062 69.7615 347.229 69.3338ZM351.507 73.9282C351.174 74.926 350.799 76.0362 350.384 77.259C349.968 78.4823 349.594 79.723 349.261 80.9811H353.681C353.348 79.6991 353.009 78.4464 352.665 77.2231C352.321 75.9998 352.006 74.9015 351.721 73.9282H351.507ZM368.295 90.385C367.851 90.4209 367.404 90.3598 366.985 90.206C366.567 90.0521 366.187 89.8093 365.871 89.4942C365.556 89.1791 365.313 88.7993 365.159 88.3811C365.005 87.9629 364.944 87.5163 364.98 87.0721V68.6564C365.241 68.6097 365.657 68.5445 366.227 68.4608C366.77 68.3798 367.318 68.3381 367.867 68.336C368.351 68.3306 368.835 68.3723 369.311 68.4608C369.69 68.5286 370.05 68.6811 370.362 68.9067C370.658 69.1351 370.88 69.4444 371.003 69.7969C371.161 70.2792 371.233 70.7855 371.217 71.2927V85.3627H379.379C379.576 85.6926 379.732 86.0455 379.842 86.4135C379.985 86.8564 380.058 87.3191 380.056 87.7846C380.093 88.1433 380.058 88.5058 379.954 88.8512C379.85 89.1966 379.679 89.5181 379.451 89.7973C379.236 89.9968 378.983 90.1515 378.708 90.2524C378.433 90.3534 378.14 90.3984 377.847 90.385H368.295ZM383.263 72.0052C383.227 71.561 383.288 71.1143 383.442 70.696C383.596 70.2777 383.839 69.8979 384.154 69.5827C384.47 69.2676 384.85 69.0248 385.268 68.871C385.687 68.7173 386.134 68.6563 386.578 68.6923H398.341C398.534 69.0159 398.684 69.3634 398.786 69.726C398.918 70.1648 398.985 70.6208 398.983 71.0791C399.017 71.4228 398.983 71.7699 398.882 72.1002C398.781 72.4304 398.615 72.7373 398.394 73.003C398.186 73.196 397.942 73.3458 397.676 73.4435C397.41 73.5412 397.127 73.5848 396.844 73.5719H389.323V76.8848H397.342C397.534 77.2027 397.683 77.5438 397.788 77.8997C397.921 78.3324 397.987 78.783 397.984 79.2358C398.053 79.927 397.848 80.6175 397.413 81.1596C397.21 81.3535 396.97 81.504 396.706 81.602C396.443 81.7 396.162 81.7433 395.882 81.7294H389.323V85.4695H398.484C398.677 85.793 398.826 86.1405 398.928 86.5031C399.061 86.9417 399.127 87.3974 399.125 87.8555C399.191 88.5548 398.98 89.2523 398.537 89.7973C398.332 89.9954 398.089 90.1496 397.822 90.2507C397.555 90.3518 397.271 90.3974 396.986 90.385H386.578C386.134 90.4207 385.687 90.3595 385.269 90.2057C384.85 90.0518 384.47 89.8089 384.155 89.4939C383.84 89.1788 383.597 88.799 383.443 88.3809C383.289 87.9627 383.228 87.5162 383.264 87.0721L383.263 72.0052Z" fill="white"/>
<path d="M151.423 276.26L137.491 253.173C137.491 253.173 134.996 244.624 138.917 244.981C138.917 244.981 137.669 237.678 141.946 237.144C141.946 237.144 139.63 226.992 149.788 228.595C149.788 228.595 150.323 226.28 157.273 224.499C164.222 222.718 167.432 224.321 167.432 226.102V231.261C167.432 231.261 170.105 227.883 172.599 228.773C175.093 229.663 179.906 237.678 179.728 239.993C179.367 242.188 178.77 244.338 177.946 246.405L172.243 259.227L174.157 262.223L151.423 276.26Z" fill="#FD8B66"/>
<path d="M259.568 252.461C254.189 263.406 248.772 274.332 243.32 285.24L235.173 301.619L226.978 317.974C226.925 318.079 226.847 318.17 226.75 318.239C226.654 318.307 226.542 318.351 226.424 318.366C226.307 318.381 226.188 318.367 226.077 318.325C225.966 318.284 225.868 318.215 225.79 318.127L225.781 318.116L188.696 275.463L176.387 261.201L177.779 261.447C172.131 264.656 166.511 267.951 160.991 271.37C158.237 273.085 155.497 274.83 152.864 276.675C151.565 277.561 150.324 278.529 149.149 279.574C148.909 279.79 148.691 280.028 148.498 280.287C148.418 280.359 148.455 280.492 148.479 280.14C148.477 280.097 148.47 280.054 148.459 280.012L148.468 280.022C148.476 280.035 148.468 280.025 148.482 280.059L148.581 280.308C148.87 281.01 149.218 281.757 149.553 282.484C152.308 288.341 155.289 294.132 158.327 299.875C161.375 305.616 164.52 311.304 167.761 316.941C174.24 328.204 181.037 339.299 188.54 349.886C192.303 355.166 196.223 360.338 200.466 365.214C204.602 370.14 209.278 374.586 214.407 378.47C216.926 380.352 219.721 381.833 222.693 382.863C224.142 383.315 225.648 383.559 227.165 383.586C228.652 383.592 230.124 383.289 231.487 382.695C232.199 382.384 232.889 382.027 233.554 381.626C234.249 381.239 234.95 380.864 235.61 380.411L237.622 379.111L239.571 377.705C242.15 375.778 244.612 373.701 246.946 371.484C251.637 367.02 256.019 362.243 260.062 357.185C264.159 352.154 267.996 346.908 271.677 341.553C275.362 336.2 278.858 330.714 282.225 325.15C285.599 319.593 288.876 313.963 291.871 308.198L309.823 273.476L292.661 308.597C286.789 320.262 280.201 331.552 272.934 342.404C269.301 347.831 265.504 353.157 261.435 358.283C257.4 363.456 253.019 368.35 248.321 372.929C245.958 375.23 243.461 377.39 240.842 379.396L238.845 380.873C238.162 381.342 237.461 381.79 236.766 382.245C236.082 382.715 235.347 383.115 234.62 383.523C233.891 383.965 233.134 384.359 232.353 384.702C230.721 385.419 228.959 385.79 227.177 385.791C225.432 385.772 223.699 385.502 222.032 384.988C218.827 383.901 215.81 382.324 213.089 380.314C207.799 376.348 202.971 371.799 198.698 366.755C194.366 361.816 190.384 356.606 186.565 351.292C178.968 340.634 172.044 329.535 165.551 318.205C162.314 312.533 159.179 306.806 156.145 301.026C153.115 295.239 150.152 289.431 147.386 283.486C147.042 282.733 146.703 282.003 146.374 281.198L146.25 280.878L146.168 280.625L146.132 280.49C146.115 280.397 146.106 280.304 146.104 280.21C146.101 280.115 146.105 280.019 146.118 279.925L146.163 279.726L146.221 279.53L146.281 279.396C146.353 279.24 146.439 279.09 146.538 278.949C146.826 278.551 147.155 278.183 147.521 277.854C148.783 276.735 150.117 275.699 151.514 274.754C154.224 272.87 156.992 271.125 159.776 269.407C165.352 265.985 170.99 262.709 176.687 259.503C176.912 259.376 177.174 259.331 177.428 259.376C177.682 259.421 177.912 259.553 178.08 259.749L190.319 274.071L226.881 317.172L225.684 317.315L234.108 301.077L242.579 284.863C248.224 274.053 253.887 263.252 259.568 252.461Z" fill="#133852"/>
<path d="M310.648 298.639H390.869V389.212H313.991C313.104 389.212 312.254 388.86 311.627 388.234C311 387.607 310.648 386.758 310.648 385.872V298.639Z" fill="#FFB957"/>
<path d="M390.869 298.639H407.582V389.212H390.869V298.639Z" fill="#E8A452"/>
<path d="M389.198 298.639H385.855V295.298C385.872 292.875 385.408 290.473 384.492 288.229C383.576 285.986 382.224 283.946 380.515 282.227C378.807 280.507 376.774 279.143 374.536 278.212C372.297 277.28 369.896 276.801 367.471 276.801C365.047 276.801 362.646 277.28 360.407 278.212C358.169 279.143 356.136 280.507 354.428 282.227C352.719 283.946 351.367 285.986 350.451 288.229C349.535 290.473 349.071 292.875 349.088 295.298V298.639H345.745V295.298C345.727 292.436 346.276 289.598 347.36 286.948C348.444 284.298 350.041 281.888 352.06 279.858C354.08 277.827 356.481 276.215 359.126 275.116C361.77 274.016 364.607 273.45 367.471 273.45C370.336 273.45 373.172 274.016 375.817 275.116C378.462 276.215 380.863 277.827 382.883 279.858C384.902 281.888 386.499 284.298 387.583 286.948C388.667 289.598 389.216 292.436 389.198 295.298V298.639Z" fill="#133852"/>
<path d="M372.486 312.001H369.143V295.298C369.143 292.886 368.668 290.497 367.744 288.268C366.82 286.039 365.466 284.013 363.759 282.307C362.051 280.601 360.025 279.248 357.794 278.325C355.564 277.402 353.173 276.926 350.759 276.926C348.345 276.926 345.954 277.402 343.724 278.325C341.493 279.248 339.467 280.601 337.759 282.307C336.052 284.013 334.698 286.039 333.774 288.268C332.85 290.497 332.375 292.886 332.375 295.298V312H329.032V295.298C329.032 289.54 331.322 284.017 335.396 279.946C339.471 275.874 344.997 273.586 350.759 273.586C356.521 273.586 362.047 275.874 366.122 279.946C370.197 284.017 372.486 289.54 372.486 295.298V312.001Z" fill="#376F92"/>
<path d="M322.348 298.639H325.69V318.681H322.348V298.639Z" fill="#E8233B"/>
<path d="M330.704 345.403H317.334V322.021L324.019 317.011L330.704 322.021V345.403Z" fill="#E8233B"/>
<path d="M428.711 389.737H123.602C123.376 389.737 123.158 389.647 122.998 389.487C122.838 389.327 122.747 389.11 122.747 388.883C122.747 388.657 122.838 388.439 122.998 388.279C123.158 388.119 123.376 388.029 123.602 388.029H428.711C428.937 388.029 429.155 388.119 429.315 388.279C429.475 388.439 429.566 388.657 429.566 388.883C429.566 389.11 429.475 389.327 429.315 389.487C429.155 389.647 428.937 389.737 428.711 389.737Z" fill="#5E1212"/>
<path d="M371.466 188.794L392.902 184.538L398.065 210.508L376.629 214.764L371.466 188.794Z" fill="#FFB957"/>
<path fill-rule="evenodd" clip-rule="evenodd" d="M383.363 177.622C382.462 178.272 381.429 178.716 380.338 178.923C377.084 179.57 374.317 178.143 372.189 175.791C369.859 173.043 368.289 169.735 367.633 166.195C366.821 162.111 366.347 158.403 368.157 155.709C369.33 153.968 371.467 152.724 374.99 152.025C378.513 151.326 380.963 151.657 382.714 152.819C385.417 154.616 386.397 158.224 387.209 162.308C387.863 165.467 387.792 168.733 387.002 171.86C386.914 172.179 386.956 172.52 387.12 172.808C387.283 173.096 387.554 173.307 387.873 173.395C388.193 173.483 388.534 173.441 388.822 173.278C389.11 173.115 389.321 172.844 389.41 172.525C390.298 169.021 390.382 165.362 389.656 161.822C388.697 156.998 387.288 152.864 384.094 150.742C381.919 149.294 378.881 148.709 374.504 149.579C370.126 150.449 367.543 152.149 366.087 154.318C363.947 157.499 364.227 161.857 365.186 166.68C365.932 170.662 367.707 174.38 370.336 177.464C373.067 180.482 376.653 182.197 380.824 181.368C382.269 181.091 383.635 180.504 384.829 179.646C385.098 179.452 385.278 179.159 385.331 178.832C385.383 178.505 385.303 178.17 385.109 177.902C384.914 177.633 384.621 177.453 384.294 177.401C383.967 177.348 383.632 177.428 383.363 177.622Z" fill="#FFB957"/>
<path fill-rule="evenodd" clip-rule="evenodd" d="M371.388 172.614L376.628 164.782C376.719 164.646 376.836 164.529 376.972 164.438C377.108 164.347 377.261 164.283 377.421 164.251C377.582 164.219 377.747 164.219 377.908 164.251C378.069 164.283 378.221 164.346 378.357 164.437L386.195 169.674C386.1 170.3 385.968 170.919 385.798 171.529C385.622 172.167 385.707 172.848 386.035 173.423C386.362 173.998 386.904 174.42 387.543 174.596C388.181 174.771 388.863 174.686 389.438 174.359C390.014 174.032 390.436 173.49 390.611 172.852C390.629 172.789 390.646 172.726 390.663 172.659L395.957 176.195C396.093 176.286 396.21 176.402 396.301 176.538C396.392 176.674 396.455 176.827 396.487 176.988L404.266 216.114C404.33 216.438 404.263 216.774 404.079 217.049C403.895 217.324 403.61 217.514 403.286 217.58L373.922 223.41C373.598 223.474 373.261 223.407 372.986 223.223C372.712 223.039 372.521 222.754 372.456 222.43L364.677 183.304C364.644 183.144 364.644 182.978 364.676 182.818C364.708 182.657 364.772 182.505 364.863 182.369L368.401 177.079C368.725 177.506 369.065 177.914 369.415 178.302C371.192 180.373 373.561 181.85 376.203 182.534C376.713 183.468 377.507 184.214 378.471 184.664C379.435 185.114 380.518 185.244 381.561 185.035C382.604 184.827 383.554 184.29 384.27 183.504C384.986 182.718 385.432 181.724 385.543 180.666L385.557 180.658C386.018 180.324 386.351 179.844 386.501 179.295C386.651 178.747 386.609 178.164 386.383 177.643C386.156 177.121 385.759 176.693 385.255 176.428C384.752 176.163 384.173 176.078 383.615 176.187C383.073 175.773 382.452 175.473 381.79 175.308C381.128 175.143 380.44 175.115 379.767 175.227C379.094 175.338 378.451 175.586 377.877 175.956C377.304 176.325 376.813 176.809 376.434 177.375C375.157 176.833 374.02 176.006 373.112 174.957C372.465 174.232 371.887 173.448 371.388 172.614ZM393.765 201.676C393.571 200.704 392.999 199.848 392.174 199.297C391.349 198.746 390.339 198.545 389.365 198.738C388.392 198.931 387.536 199.503 386.984 200.328C386.433 201.152 386.232 202.162 386.424 203.135L386.91 205.579C387.104 206.552 387.676 207.408 388.501 207.959C389.326 208.51 390.337 208.711 391.31 208.518H391.315C392.287 208.324 393.142 207.753 393.692 206.93C394.243 206.106 394.444 205.099 394.252 204.127L393.765 201.676ZM387.657 190.02L378.827 207.026C378.683 207.318 378.659 207.656 378.761 207.965C378.863 208.275 379.082 208.533 379.372 208.683C379.661 208.833 379.998 208.864 380.31 208.769C380.622 208.674 380.885 208.461 381.042 208.175L389.872 191.169C390.012 190.877 390.032 190.543 389.93 190.236C389.827 189.929 389.609 189.674 389.321 189.525C389.034 189.375 388.7 189.344 388.389 189.436C388.079 189.529 387.816 189.738 387.657 190.02ZM391.318 202.162C391.253 201.839 391.062 201.554 390.787 201.37C390.512 201.186 390.176 201.119 389.852 201.183C389.527 201.247 389.242 201.438 389.058 201.713C388.874 201.988 388.807 202.324 388.871 202.648L389.357 205.093C389.422 205.417 389.613 205.702 389.888 205.886C390.163 206.069 390.499 206.137 390.823 206.073H390.829C390.989 206.042 391.141 205.979 391.277 205.888C391.413 205.798 391.529 205.681 391.62 205.545C391.711 205.41 391.774 205.257 391.805 205.097C391.837 204.937 391.837 204.772 391.805 204.612L391.318 202.162ZM381.789 192.616C381.595 191.643 381.022 190.788 380.197 190.237C379.372 189.685 378.362 189.484 377.389 189.677H377.385C376.413 189.871 375.558 190.443 375.008 191.266C374.457 192.089 374.255 193.097 374.447 194.068L374.935 196.519C375.129 197.491 375.701 198.347 376.526 198.898C377.351 199.449 378.361 199.65 379.334 199.458C380.307 199.264 381.164 198.692 381.715 197.868C382.266 197.043 382.468 196.034 382.275 195.062L381.789 192.616ZM379.342 193.102C379.277 192.778 379.086 192.493 378.811 192.309C378.536 192.125 378.2 192.058 377.875 192.122L377.871 192.123C377.711 192.154 377.558 192.217 377.423 192.308C377.287 192.398 377.17 192.515 377.079 192.65C376.989 192.786 376.926 192.938 376.894 193.098C376.862 193.258 376.862 193.423 376.894 193.583L377.381 196.033C377.446 196.357 377.637 196.642 377.912 196.826C378.187 197.009 378.524 197.077 378.848 197.013C379.172 196.948 379.458 196.757 379.641 196.482C379.825 196.207 379.892 195.871 379.829 195.547L379.342 193.102Z" fill="#E8233B"/>
<path d="M78.8319 199.778C78.8792 200.602 78.7503 201.427 78.4539 202.197C78.1575 202.967 77.7004 203.666 77.1129 204.246C75.8649 205.282 74.2934 205.85 72.6707 205.85C71.0481 205.85 69.4766 205.282 68.2286 204.246C67.1336 203.023 66.5282 201.439 66.5282 199.798C66.5282 198.156 67.1336 196.573 68.2286 195.35C69.4763 194.313 71.0479 193.745 72.6707 193.745C74.2935 193.745 75.8651 194.313 77.1129 195.35C77.698 195.923 78.1539 196.615 78.4504 197.378C78.7468 198.142 78.8769 198.96 78.8319 199.778ZM71.1521 199.778C71.1059 200.378 71.2604 200.976 71.5915 201.478C71.7165 201.649 71.8803 201.789 72.0695 201.885C72.2587 201.981 72.4679 202.031 72.6801 202.031C72.8923 202.031 73.1016 201.981 73.2908 201.885C73.4799 201.789 73.6437 201.649 73.7687 201.478C74.0999 200.976 74.2547 200.378 74.209 199.778C74.2536 199.197 74.0983 198.617 73.7687 198.136C73.6401 197.97 73.4752 197.835 73.2865 197.743C73.0977 197.65 72.8903 197.602 72.6801 197.602C72.4699 197.602 72.2625 197.65 72.0738 197.743C71.8851 197.835 71.7201 197.97 71.5915 198.136C71.262 198.617 71.107 199.197 71.1521 199.778ZM85.9775 193.707C86.7812 193.815 87.562 194.054 88.289 194.413C88.5787 194.527 88.8326 194.716 89.0241 194.962C89.2157 195.207 89.3379 195.499 89.3781 195.807C89.371 196.245 89.2668 196.675 89.0729 197.067C88.8472 197.536 88.5785 197.984 88.2702 198.404L75.0493 217.534C74.3272 217.44 73.6318 217.2 73.0054 216.829C72.7532 216.687 72.5395 216.486 72.3829 216.243C72.2263 216 72.1315 215.722 72.1069 215.434C72.1066 215.032 72.1386 214.629 72.2027 214.232C72.3056 213.744 72.5072 213.283 72.7951 212.876L85.9775 193.707ZM94.8422 211.501C94.8894 212.325 94.7606 213.15 94.4642 213.92C94.1678 214.691 93.7106 215.389 93.1231 215.969C91.8751 217.006 90.3036 217.573 88.681 217.573C87.0583 217.573 85.4868 217.006 84.2388 215.969C83.1436 214.746 82.5381 213.162 82.5381 211.521C82.5381 209.879 83.1436 208.295 84.2388 207.072C85.4866 206.035 87.0582 205.467 88.681 205.467C90.3037 205.467 91.8753 206.035 93.1231 207.072C93.7083 207.646 94.1643 208.338 94.4607 209.101C94.7572 209.865 94.8872 210.683 94.8422 211.501ZM87.1623 211.501C87.1159 212.101 87.2705 212.699 87.6017 213.201C87.7267 213.373 87.8906 213.513 88.0798 213.609C88.2691 213.705 88.4784 213.755 88.6908 213.755C88.9031 213.755 89.1125 213.705 89.3018 213.609C89.491 213.513 89.6548 213.373 89.7798 213.201C90.1107 212.699 90.2652 212.101 90.2192 211.501C90.2641 210.92 90.1091 210.341 89.7798 209.859C89.6512 209.693 89.4862 209.558 89.2974 209.466C89.1086 209.373 88.9011 209.325 88.6908 209.325C88.4805 209.325 88.2729 209.373 88.0842 209.466C87.8954 209.558 87.7303 209.693 87.6017 209.859C87.2721 210.341 87.117 210.92 87.1623 211.501Z" fill="white"/>
</svg>
