<svg width="555" height="373" viewBox="0 0 555 373" fill="none" xmlns="http://www.w3.org/2000/svg">
<path d="M152.345 349.367C119.773 342.837 88.7914 331.775 64.2249 307.467C44.3498 287.8 31.4598 261.444 27.0527 233.84C21.3907 198.369 30.3292 161.076 50.3335 131.363C67.8174 105.393 80.8462 63.2005 108.697 49.9477C143.173 33.5431 189.6 39.4495 225.585 26.3241C291.169 2.40265 280.331 -3.92023 349.472 4.49432C389.471 9.36188 429.582 21.312 461.283 47.0687C470.368 54.4579 478.618 62.8177 485.885 71.999C537.539 137.215 538.52 241.314 483.176 304.705C467.899 322.205 448.412 335.916 427.255 345.398C380.188 366.492 326.61 367.63 275.944 365.44C218.541 362.958 241.638 362.375 184.64 354.626C173.817 353.155 162.996 351.503 152.345 349.367Z" fill="#FFE3C2"/>
<path d="M476.838 335.321C477.304 335.1 477.766 334.871 478.231 334.647C478.667 334.437 479.097 334.214 479.521 333.978C479.4 334.045 479.039 334.243 479.602 333.934C480.769 333.293 481.931 332.641 483.078 331.963C483.529 331.697 483.977 331.428 484.423 331.154L484.958 330.826L485.223 330.659C485.589 330.429 485.577 330.438 485.187 330.686C485.235 330.525 486.434 330.167 486.576 330.107C487.342 329.766 488.067 329.341 488.739 328.84C492.251 326.35 495.627 323.634 498.905 320.847C500.746 319.281 502.463 317.521 504.179 315.824C505.745 314.278 507.309 312.713 508.759 311.057C511.524 307.898 514.163 304.635 516.678 301.268C525.805 289.058 533.403 275.778 539.303 261.724C545.178 247.67 549.39 232.977 551.851 217.946C553.064 210.601 553.851 203.193 554.206 195.757C555.094 180.478 553.984 165.149 550.904 150.158C550.043 145.908 549.029 141.685 547.912 137.496C547.438 135.714 546.749 134.032 546.144 132.295C545.525 130.52 544.878 128.756 544.203 127.002C543.78 125.602 543.146 124.275 542.323 123.067C541.185 121.719 539.792 120.609 538.224 119.8L540.674 121.731C540.203 121.112 539.693 120.524 539.147 119.97C537.638 118.295 535.239 117.24 533.009 118.236C532.16 118.611 531.406 119.172 530.801 119.876C529.983 120.97 529.593 122.325 529.704 123.686C529.665 124.472 529.667 125.26 529.71 126.045L530.185 122.964C529.863 123.822 529.626 124.711 529.479 125.616C529.189 127.199 529.299 128.829 529.8 130.358C530.078 131.355 530.384 132.343 530.667 133.339C531.245 135.374 531.721 137.438 532.3 139.471L531.805 137.463C532.143 140.625 533.286 143.736 534.051 146.822L533.542 144.757C536.712 157.924 538.522 171.382 538.946 184.919C539.087 188.768 539.112 192.618 539.019 196.471L539.068 194.494C538.755 207.427 537.146 220.296 534.265 232.908C533.445 236.487 532.523 240.041 531.497 243.569L531.989 241.877C528.558 253.775 523.973 265.31 518.301 276.319C516.694 279.416 514.998 282.463 513.211 285.462L513.998 284.143C510.068 290.746 505.702 297.081 500.927 303.103C498.328 306.371 495.729 309.634 492.93 312.734C491.537 314.277 490.205 315.851 488.738 317.327C488.414 317.656 488.098 318.009 487.748 318.312C488.757 317.439 487.475 318.57 487.24 318.794C486.407 319.587 485.561 320.366 484.703 321.132C483.607 321.998 482.597 322.969 481.688 324.029C481.566 324.189 481.436 324.344 481.311 324.5C481.186 324.657 481.059 324.814 480.931 324.97C481.215 324.72 481.256 324.681 481.054 324.853C480.604 325.206 480.174 325.587 479.73 325.948C477.875 327.456 475.96 328.893 474.035 330.309C473.482 330.733 473.101 331.342 472.961 332.024C472.821 332.707 472.93 333.416 473.27 334.024C473.61 334.632 474.158 335.098 474.813 335.336C475.468 335.574 476.186 335.568 476.838 335.321ZM482.524 46.6222C484.494 48.2028 486.409 49.8478 488.269 51.5572C488.492 51.7642 488.716 51.9695 488.937 52.1781C488.987 52.226 489.707 52.9273 489.197 52.4159C489.761 52.9817 490.292 53.5799 490.866 54.1359C491.813 55.053 492.783 55.9434 493.717 56.8736C493.933 57.0879 494.148 57.3046 494.363 57.5197C495.09 58.2477 493.811 56.941 494.516 57.6763C494.932 58.1106 495.348 58.5432 495.759 58.9823C496.585 59.8622 497.421 60.7315 498.24 61.6162C499.951 63.4652 501.598 65.3699 503.182 67.3303C506.289 71.185 509.169 75.2174 511.806 79.4071C512.454 80.433 513.085 81.4693 513.699 82.5158C514.006 83.0393 514.306 83.5669 514.609 84.0937C515.151 85.0425 514.058 83.0856 514.58 84.0425C514.773 84.3964 514.968 84.7495 515.158 85.105C516.304 87.2364 517.379 89.4036 518.385 91.6064C519.433 93.9035 520.537 96.1761 521.551 98.4902C522.037 99.5995 522.505 100.717 522.954 101.842C523.225 102.71 523.609 103.538 524.094 104.307C524.925 105.417 526.147 106.17 527.512 106.413C529.969 106.774 531.715 104.796 532.097 102.557C532.408 100.74 531.55 98.7832 530.984 97.056C530.235 94.6441 529.363 92.2724 528.369 89.9506C526.165 85.1558 523.612 80.5293 520.729 76.1085C514.913 67.0368 507.763 58.8917 499.52 51.9468C494.998 48.3285 490.161 45.1239 485.065 42.3716C484.51 42.1311 483.886 42.102 483.31 42.2898C482.735 42.4777 482.249 42.8693 481.943 43.391C481.634 43.9093 481.524 44.5213 481.63 45.1146C481.737 45.708 482.055 46.2438 482.524 46.6222ZM44.2052 108.074C43.7933 108.258 43.3688 108.413 42.9349 108.538C42.1312 108.792 41.3751 109.178 40.6972 109.679C39.9403 110.246 39.2117 110.857 38.4831 111.46C37.0569 112.638 35.6403 113.814 34.327 115.114C31.3762 118.036 28.5358 121.063 25.8896 124.263C20.8696 130.46 16.5525 137.193 13.0175 144.34C6.07637 158.137 1.93076 173.168 0.818756 188.57C0.442539 193.234 0.428152 197.921 0.775713 202.587C0.930252 204.653 1.20252 206.709 1.59118 208.744C1.80236 209.807 2.02166 210.87 2.2767 211.925C2.55645 213.348 3.16438 214.686 4.05221 215.834C4.59072 216.506 5.23709 217.084 5.965 217.545C7.03388 218.311 8.35632 218.637 9.65875 218.455C10.9612 218.273 12.1439 217.598 12.9623 216.57C13.5866 215.842 14.0762 215.008 14.408 214.108C14.6488 213.456 14.833 212.785 14.9587 212.102C15.0217 211.291 15.0166 210.476 14.9433 209.667C14.9011 208.363 14.8827 207.058 14.8881 205.754L14.8799 207.522C14.8938 204.936 14.7947 202.355 14.8052 199.77L14.7971 201.612C14.8109 199.439 14.8475 197.267 14.8556 195.094L14.8475 196.964C14.921 187.274 16.2297 177.633 18.7421 168.274L18.271 170.025C20.9365 160.073 24.851 150.499 29.9215 141.53L29.0678 143.028C31.3169 139.091 33.7495 135.224 36.3567 131.514C38.9623 127.804 41.862 124.338 44.7567 120.86C45.5823 119.875 46.4294 118.908 47.2974 117.96C47.9805 117.283 48.5582 116.509 49.0111 115.661C49.1468 115.383 49.2597 115.087 49.3921 114.805C49.5562 114.455 50.1044 113.682 49.3758 114.737C49.9416 113.963 50.2426 113.026 50.2342 112.067C50.2259 111.108 49.9087 110.178 49.3295 109.413C48.1429 108.026 45.9523 107.183 44.2052 108.074Z" fill="#FFE3C2"/>
<path d="M55.8493 106.755H500.627V122.329H55.8493V106.755Z" fill="#FFCA9F"/>
<path d="M55.8493 99.6582H500.627V115.232H55.8493V99.6582ZM65.9947 122.329H490.481V329.409H65.9947V122.329Z" fill="#FFB36E"/>
<path d="M500.627 106.755H55.8493L37.8293 76.5817H518.646L500.627 106.755ZM466.222 329.409V169.923C466.222 160.437 462.451 151.338 455.738 144.63C449.025 137.922 439.921 134.153 430.427 134.153H379.292C369.798 134.153 360.694 137.922 353.981 144.63C347.268 151.338 343.497 160.437 343.497 169.923V329.408H55.8484V371.749H500.626V329.409H466.222Z" fill="#FFCA9F"/>
<path d="M395.337 149.483H414.382C425.225 149.483 435.623 153.788 443.29 161.449C450.957 169.111 455.264 179.502 455.264 190.338V360.069H354.455V190.338C354.455 179.502 358.762 169.111 366.429 161.449C374.096 153.788 384.494 149.483 395.337 149.483Z" fill="#376F92"/>
<path d="M404.494 165.543C409.195 165.543 413.849 166.468 418.192 168.266C422.535 170.063 426.481 172.698 429.805 176.02C433.129 179.342 435.765 183.285 437.564 187.625C439.363 191.965 440.289 196.616 440.289 201.314V283.053H368.699V201.314C368.699 196.616 369.625 191.965 371.424 187.625C373.223 183.285 375.86 179.342 379.183 176.02C382.507 172.699 386.453 170.064 390.796 168.266C395.139 166.469 399.793 165.543 404.494 165.543Z" fill="#78C1D0"/>
<path d="M358.846 251.115H364.317V283.053H358.846V251.115Z" fill="#FFB957"/>
<path d="M220.731 20.2139H318.896C322.396 20.2139 325.752 21.6031 328.227 24.0761C330.702 26.549 332.092 29.903 332.092 33.4002V55.8444H207.535V33.4002C207.535 29.903 208.925 26.549 211.4 24.0761C213.874 21.6031 217.232 20.2139 220.731 20.2139Z" fill="#52AACC"/>
<path d="M235.679 28.7656H303.95C307.449 28.7656 310.806 30.1549 313.28 32.6278C315.755 35.1007 317.145 38.4547 317.145 41.9519V55.8444H222.482V41.9519C222.482 38.4547 223.873 35.1007 226.347 32.6278C228.822 30.1549 232.179 28.7656 235.679 28.7656Z" fill="#D3E4EA"/>
<path d="M435.65 89.5749H103.977L143.594 55.8444H396.033L435.65 89.5749Z" fill="#52AACC"/>
<path d="M103.977 89.5749L145.496 89.5748V99.2353C145.496 104.737 143.308 110.014 139.415 113.904C135.522 117.794 130.242 119.98 124.736 119.98C119.231 119.98 113.951 117.794 110.058 113.904C106.165 110.013 103.978 104.737 103.977 99.2353V89.5749Z" fill="#376F92"/>
<path d="M145.496 89.5748H187.014V99.2353C187.014 104.737 184.827 110.013 180.934 113.904C177.041 117.794 171.761 119.98 166.255 119.98C160.75 119.98 155.47 117.794 151.576 113.904C147.683 110.014 145.496 104.737 145.496 99.2353V89.5748Z" fill="#4994BA"/>
<path d="M187.014 89.5748H228.533V99.2353C228.532 104.737 226.345 110.013 222.452 113.904C218.559 117.794 213.279 119.98 207.774 119.98C202.268 119.98 196.988 117.794 193.095 113.904C189.202 110.014 187.014 104.737 187.014 99.2353V89.5748Z" fill="#376F92"/>
<path d="M228.533 89.5748H270.052V99.2353C270.052 104.737 267.864 110.014 263.971 113.904C260.078 117.794 254.798 119.98 249.292 119.98C243.787 119.98 238.506 117.794 234.613 113.904C230.72 110.014 228.533 104.737 228.533 99.2353V89.5748Z" fill="#4994BA"/>
<path d="M270.052 89.5748H311.57V99.2353C311.57 104.737 309.383 110.014 305.49 113.904C301.596 117.794 296.316 119.98 290.811 119.98C285.305 119.98 280.025 117.794 276.132 113.904C272.239 110.013 270.052 104.737 270.052 99.2353V89.5748Z" fill="#376F92"/>
<path d="M311.57 89.5748H353.089V99.2353C353.088 104.737 350.901 110.013 347.008 113.904C343.115 117.794 337.835 119.98 332.33 119.98C329.603 119.98 326.904 119.443 324.385 118.401C321.867 117.359 319.578 115.831 317.65 113.904C315.722 111.978 314.193 109.691 313.15 107.174C312.106 104.657 311.57 101.96 311.57 99.2353V89.5748Z" fill="#4994BA"/>
<path d="M353.089 89.5748H394.607V99.2353C394.607 104.737 392.419 110.013 388.527 113.904C384.634 117.794 379.354 119.98 373.848 119.98C368.342 119.98 363.062 117.794 359.169 113.904C355.276 110.014 353.089 104.737 353.089 99.2353V89.5748Z" fill="#376F92"/>
<path d="M394.607 89.5748H436.127V99.2353C436.127 104.737 433.939 110.014 430.046 113.904C426.153 117.794 420.873 119.98 415.367 119.98C409.862 119.98 404.581 117.794 400.688 113.904C396.795 110.014 394.607 104.737 394.607 99.2353V89.5748Z" fill="#4994BA"/>
<path d="M187.014 89.5748L204.446 55.8444H171.643L145.496 89.5748H187.014ZM270.052 89.5748L270.052 55.8444H242.002L228.533 89.5748H270.052ZM353.089 89.5748L335.657 55.8444H302.854L311.57 89.5748H353.089ZM394.607 89.5748L369.411 55.8444H396.033L436.127 89.5748H394.607Z" fill="#63BFDB"/>
<path d="M86.5675 136.517H304.285V302.342H86.5675V136.517Z" fill="#D3E4EA"/>
<path d="M87.8467 136.517H305.565V302.342H87.8467V136.517Z" fill="black"/>
<path d="M151.993 223.094C165.159 244.79 155.917 257.947 155.458 258.406C155.222 258.641 154.762 259.101 154.527 259.101C148.148 261.763 141.34 263.252 134.431 263.494V283.117C135.586 285.649 142.517 298.582 151.533 302.504C152.081 302.753 152.509 303.208 152.725 303.77C152.942 304.331 152.928 304.955 152.688 305.507C152.414 306.033 151.957 306.44 151.404 306.652C150.851 306.865 150.239 306.869 149.683 306.662C143.212 303.895 137.897 297.428 134.431 292.351V307.122C134.431 307.734 134.188 308.321 133.754 308.754C133.321 309.187 132.734 309.43 132.121 309.43C131.508 309.43 130.921 309.187 130.488 308.754C130.054 308.321 129.811 307.734 129.811 307.122V292.116C126.345 297.428 121.03 303.894 114.335 306.886C113.78 307.1 113.165 307.101 112.61 306.887C112.054 306.674 111.598 306.262 111.33 305.731C111.089 305.181 111.076 304.559 111.292 303.998C111.508 303.438 111.937 302.986 112.485 302.74C122.421 298.347 129.811 283.117 129.811 282.881V263.718C122.841 263.369 115.973 261.89 109.479 259.337C109.041 259.098 108.65 258.782 108.324 258.406C107.864 257.946 99.7791 245.485 111.789 223.317C115.254 216.627 113.875 209.008 107.64 200.232C107.169 199.772 101.865 187.535 103.939 182.917C104.215 182.34 104.638 181.844 105.165 181.481C105.693 181.117 106.306 180.897 106.945 180.844C111.33 180.385 118.26 178.536 119.415 175.768C119.757 174.174 119.912 172.545 119.875 170.915C119.888 170.537 119.993 170.168 120.18 169.839C120.367 169.51 120.632 169.232 120.951 169.028C121.27 168.824 121.633 168.701 122.01 168.668C122.388 168.636 122.767 168.696 123.116 168.842C125.036 169.94 127.156 170.645 129.351 170.915V163.989C129.392 163.39 129.649 162.827 130.073 162.402C130.498 161.978 131.062 161.722 131.661 161.681C132.274 161.681 132.861 161.925 133.294 162.357C133.727 162.79 133.971 163.377 133.971 163.989V170.915C136.313 170.65 138.584 169.947 140.666 168.842C140.995 168.672 141.361 168.587 141.731 168.594C142.101 168.601 142.464 168.7 142.786 168.882C143.108 169.065 143.379 169.325 143.575 169.639C143.77 169.953 143.885 170.311 143.907 170.68C144.131 173.224 144.602 176.228 145.062 176.922C146.441 178.76 153.148 180.385 157.073 180.844C157.684 180.891 158.269 181.111 158.76 181.478C159.25 181.845 159.626 182.345 159.843 182.917C161.693 187.311 154.068 200.232 153.843 200.232C147.833 207.393 147.137 215.473 151.993 223.094Z" fill="#376F92"/>
<path d="M202.779 198.122V196.509C199.556 196.509 196.34 196.646 192.988 196.646C189.773 196.646 186.55 196.509 183.335 196.379C183.348 196.697 183.301 197.014 183.198 197.315C183.198 197.583 183.068 197.849 183.068 198.122C189.636 198.389 196.206 198.389 202.779 198.122ZM180.653 182.575C181.057 186.062 182.794 189.139 183.198 192.488C183.311 193.109 183.357 193.739 183.335 194.369C189.903 194.635 196.473 194.635 203.045 194.369C203.312 193.159 203.852 191.955 204.25 190.752C205.057 188.605 206.261 186.062 206.131 183.649C206.131 180.969 205.193 178.418 205.323 175.738C205.461 173.599 205.323 171.452 205.461 169.311C205.461 168.102 206.261 164.622 205.727 163.678C205.136 162.559 204.464 161.485 203.716 160.464C201.841 161.941 202.641 166.358 202.641 168.505C202.641 169.982 202.511 171.589 202.375 173.058C202.238 175.205 202.511 177.215 200.363 177.749C198.085 178.288 196.477 178.692 194.733 180.298C193.795 181.098 193.255 181.502 192.722 181.502C191.784 181.638 191.243 180.565 189.499 179.361C186.954 177.749 186.147 176.545 185.476 173.728C184.676 170.918 184.942 167.971 184.942 165.018C184.942 164.348 185.476 160.731 184.409 160.601C183.465 160.464 182.664 163.008 182.26 163.678C181.727 164.484 182.124 167.028 182.124 168.101V172.928C182.124 176.278 180.249 179.089 180.653 182.575ZM218.467 222.373C216.455 219.159 215.114 215.543 212.836 212.322C210.017 208.302 204.92 204.685 203.312 199.996C199.959 200.132 196.607 200.263 193.125 200.263C189.636 200.263 186.017 200.133 182.527 199.996C181.323 202.409 179.311 204.419 177.567 206.429C171.8 213.259 167.914 221.437 164.561 229.743C162.283 235.24 160.402 236.71 170.862 241.94C176.599 244.693 182.869 246.157 189.232 246.227C199.289 246.227 209.08 243.144 218.199 239.124C219.944 238.323 221.682 237.517 222.626 236.039C225.034 232.156 220.478 225.723 218.467 222.373Z" fill="#FFB957"/>
<path d="M209.135 163.786H177.848C177.05 163.786 176.267 163.57 175.582 163.161C174.897 162.752 174.336 162.165 173.958 161.462C173.58 160.76 173.399 159.968 173.435 159.172C173.471 158.375 173.723 157.603 174.162 156.938L174.275 156.767L193.492 149.335L212.709 156.768L212.821 156.938C213.261 157.603 213.512 158.375 213.548 159.171C213.584 159.968 213.404 160.76 213.026 161.462C212.648 162.164 212.087 162.751 211.402 163.16C210.717 163.57 209.933 163.786 209.135 163.786ZM175.126 157.808C174.852 158.285 174.708 158.826 174.709 159.376C174.71 159.926 174.855 160.466 175.131 160.942C175.407 161.418 175.803 161.814 176.28 162.088C176.756 162.363 177.297 162.508 177.847 162.508H209.136C209.686 162.508 210.227 162.363 210.704 162.088C211.18 161.813 211.576 161.418 211.852 160.942C212.128 160.466 212.273 159.926 212.274 159.376C212.275 158.826 212.131 158.285 211.857 157.808L193.493 150.706L175.126 157.808Z" fill="#133852"/>
<path d="M193.394 150.66C193.31 150.66 193.227 150.644 193.149 150.612C193.072 150.58 193.001 150.533 192.942 150.473C192.882 150.414 192.835 150.343 192.803 150.266C192.771 150.188 192.754 150.105 192.754 150.021V147.32C191.784 147.135 190.918 146.594 190.326 145.805C189.733 145.015 189.456 144.033 189.55 143.051C189.643 142.068 190.1 141.156 190.831 140.492C191.561 139.828 192.514 139.46 193.501 139.461C194.48 139.459 195.424 139.82 196.152 140.473C196.881 141.125 197.342 142.024 197.446 142.996C197.458 143.081 197.453 143.167 197.431 143.25C197.409 143.333 197.37 143.41 197.317 143.478C197.265 143.545 197.199 143.601 197.124 143.643C197.049 143.685 196.967 143.711 196.882 143.72C196.797 143.73 196.711 143.722 196.629 143.697C196.547 143.673 196.47 143.632 196.404 143.577C196.338 143.523 196.284 143.455 196.245 143.379C196.205 143.304 196.181 143.22 196.174 143.135C196.119 142.623 195.916 142.137 195.592 141.736C195.268 141.336 194.835 141.036 194.345 140.875C193.856 140.713 193.33 140.695 192.83 140.824C192.331 140.952 191.879 141.222 191.528 141.6C191.178 141.978 190.943 142.449 190.853 142.956C190.763 143.464 190.821 143.987 191.02 144.462C191.218 144.938 191.55 145.346 191.974 145.639C192.399 145.931 192.899 146.096 193.415 146.112L194.033 146.133V150.02C194.034 150.104 194.017 150.188 193.985 150.265C193.953 150.343 193.906 150.413 193.846 150.473C193.787 150.532 193.717 150.579 193.639 150.611C193.561 150.644 193.478 150.66 193.394 150.66Z" fill="#133852"/>
<path d="M118.655 179.557C121.124 179.557 121.129 175.722 118.655 175.722C116.186 175.722 116.182 179.557 118.655 179.557ZM123.913 184.428C126.382 184.428 126.387 180.593 123.913 180.593C121.444 180.593 121.439 184.428 123.913 184.428Z" fill="#F89017"/>
<path d="M121.188 181.168C121.437 181.161 121.674 181.057 121.848 180.878C122.022 180.699 122.12 180.459 122.12 180.209C122.12 179.96 122.022 179.72 121.848 179.541C121.674 179.362 121.437 179.257 121.188 179.25C120.938 179.257 120.701 179.362 120.527 179.541C120.353 179.72 120.256 179.96 120.256 180.209C120.256 180.459 120.353 180.699 120.527 180.878C120.701 181.057 120.938 181.161 121.188 181.168ZM127.789 185.003C128.037 184.993 128.271 184.888 128.443 184.709C128.614 184.53 128.71 184.292 128.71 184.045C128.71 183.797 128.614 183.559 128.443 183.38C128.271 183.202 128.037 183.096 127.789 183.086C127.542 183.096 127.308 183.202 127.136 183.38C126.965 183.559 126.869 183.797 126.869 184.045C126.869 184.292 126.965 184.53 127.136 184.709C127.308 184.888 127.542 184.993 127.789 185.003ZM135.312 184.467C135.562 184.46 135.799 184.355 135.973 184.176C136.147 183.997 136.244 183.757 136.244 183.508C136.244 183.258 136.147 183.018 135.973 182.839C135.799 182.66 135.562 182.556 135.312 182.549C135.063 182.556 134.826 182.66 134.651 182.839C134.477 183.018 134.38 183.258 134.38 183.508C134.38 183.757 134.477 183.997 134.651 184.176C134.826 184.355 135.063 184.46 135.312 184.467ZM141.912 180.785C142.162 180.778 142.399 180.674 142.573 180.495C142.747 180.315 142.844 180.076 142.844 179.826C142.844 179.576 142.747 179.337 142.573 179.158C142.399 178.979 142.162 178.874 141.912 178.867C141.663 178.874 141.426 178.979 141.252 179.158C141.078 179.337 140.98 179.576 140.98 179.826C140.98 180.076 141.078 180.315 141.252 180.495C141.426 180.674 141.663 180.778 141.912 180.785Z" fill="#CE185E"/>
<path d="M131.857 186.653C134.326 186.653 134.331 182.817 131.857 182.817C129.388 182.817 129.384 186.653 131.857 186.653ZM138.689 183.7C141.158 183.7 141.163 179.864 138.689 179.864C136.219 179.864 136.215 183.7 138.689 183.7ZM145.022 179.788C147.491 179.788 147.495 175.952 145.022 175.952C142.552 175.952 142.548 179.788 145.022 179.788Z" fill="#F89017"/>
<path d="M310.613 302.342H80.2395C79.3423 302.342 78.615 303.069 78.615 303.965V313.597C78.615 314.494 79.3423 315.221 80.2395 315.221H310.613C311.51 315.221 312.238 314.494 312.238 313.597V303.965C312.238 303.069 311.51 302.342 310.613 302.342Z" fill="#4994BA"/>
<path d="M104.493 202.86C104.24 202.86 103.993 202.785 103.783 202.644C103.572 202.504 103.408 202.304 103.312 202.07C103.215 201.837 103.19 201.58 103.239 201.332C103.288 201.084 103.41 200.856 103.589 200.677L162.444 141.862C162.563 141.744 162.704 141.649 162.859 141.585C163.015 141.521 163.181 141.488 163.349 141.488C163.517 141.488 163.683 141.521 163.839 141.585C163.994 141.649 164.135 141.743 164.254 141.862C164.373 141.981 164.467 142.122 164.531 142.277C164.595 142.432 164.629 142.598 164.629 142.766C164.629 142.934 164.596 143.1 164.531 143.255C164.467 143.41 164.373 143.551 164.254 143.67L105.398 202.486C105.279 202.605 105.138 202.699 104.983 202.763C104.828 202.827 104.661 202.86 104.493 202.86ZM130.558 205.298C130.303 205.298 130.053 205.222 129.841 205.079C129.63 204.936 129.466 204.733 129.37 204.496C129.275 204.259 129.253 204 129.307 203.75C129.361 203.5 129.488 203.273 129.673 203.096L165.941 168.422C166.186 168.187 166.515 168.06 166.854 168.067C167.193 168.075 167.515 168.217 167.75 168.462C167.985 168.706 168.112 169.035 168.105 169.374C168.097 169.713 167.955 170.035 167.71 170.269L131.442 204.943C131.204 205.171 130.888 205.298 130.558 205.298ZM191.096 291.756C190.843 291.756 190.595 291.681 190.385 291.541C190.174 291.4 190.01 291.201 189.913 290.967C189.816 290.733 189.791 290.476 189.84 290.228C189.89 289.98 190.012 289.752 190.191 289.574L249.046 230.759C249.165 230.64 249.306 230.546 249.461 230.481C249.616 230.417 249.783 230.384 249.951 230.384C250.119 230.384 250.285 230.417 250.44 230.481C250.595 230.545 250.736 230.639 250.855 230.758C250.974 230.877 251.068 231.018 251.133 231.173C251.197 231.328 251.23 231.494 251.23 231.662C251.23 231.83 251.197 231.996 251.133 232.151C251.069 232.306 250.974 232.447 250.856 232.566L192 291.381C191.881 291.5 191.74 291.595 191.585 291.659C191.429 291.723 191.264 291.756 191.096 291.756ZM217.16 294.195C216.904 294.196 216.654 294.119 216.442 293.976C216.23 293.833 216.066 293.63 215.971 293.393C215.876 293.156 215.854 292.896 215.908 292.646C215.962 292.397 216.09 292.169 216.275 291.992L252.543 257.318C252.788 257.083 253.116 256.956 253.455 256.963C253.795 256.971 254.117 257.113 254.351 257.358C254.586 257.603 254.714 257.931 254.706 258.27C254.699 258.609 254.557 258.931 254.312 259.165L218.044 293.84C217.806 294.068 217.489 294.195 217.16 294.195Z" fill="white"/>
<path d="M215.733 348.935L212.598 359.046C212.598 359.046 195.254 360.851 190.918 372.045H226.592C227.088 372.045 227.567 371.869 227.946 371.549C228.324 371.229 228.576 370.785 228.658 370.296L232.22 348.935H215.733ZM303.694 341.725L304.293 354.533C304.293 354.533 288.674 360.042 288.527 372.045L323.314 364.879C324.272 364.522 323.471 360.469 323.275 359.465L319.141 335.966L303.694 341.725Z" fill="#FD8B66"/>
<path d="M240.045 197.455L211.568 350.871C211.568 350.871 229.324 348.193 240.045 355.893C250.766 363.594 267.852 349.303 274.486 350.065C279.502 350.64 293.181 352.617 300.886 349.695C308.592 346.773 313.617 342.756 325.342 348.783C325.342 348.783 332.043 350.792 337.404 345.77C337.404 345.77 313.079 296.636 302.359 263.157C291.638 229.678 286.697 208.419 269.904 197.455H240.045Z" fill="#E6560F"/>
<path d="M395.494 263.492L392.309 258.656L394.972 253.904L345.688 233.097L316.012 287.596L395.494 263.492Z" fill="#E8A452"/>
<path d="M243.061 114.679C243.061 114.679 243.898 104.886 248.84 103.044C253.781 101.203 254.284 103.212 257.383 103.044C259.384 102.879 261.313 102.218 262.994 101.12C262.994 101.12 265.172 105.556 264.502 108.485C263.832 111.414 265.507 118.947 267.182 118.361C268.857 117.775 267.182 112.586 270.364 114.26C273.547 115.934 272.626 121.458 268.773 121.96C268.773 121.96 267.015 131.418 268.69 135.603C268.69 135.603 276.731 140.96 277.233 146.483C277.735 152.007 278.07 158.368 279.913 159.541C281.756 160.713 293.816 159.372 293.314 150.835C292.812 142.298 286.948 137.946 287.953 129.577C288.958 121.208 277.233 110.327 276.06 105.807C274.887 101.286 266.679 90.9084 261.32 91.4108C255.96 91.9132 247.081 88.5651 243.061 94.5909C239.04 100.617 238.036 107.648 243.061 114.679Z" fill="#5E1212"/>
<path d="M268.773 121.96C272.626 121.458 273.547 115.934 270.364 114.26C267.181 112.586 268.858 117.775 267.182 118.361C265.507 118.947 263.832 111.414 264.502 108.485C265.172 105.556 262.994 101.12 262.994 101.12C261.313 102.218 259.384 102.879 257.383 103.044C254.284 103.212 253.781 101.203 248.84 103.044C243.898 104.886 243.061 114.679 243.061 114.679C243.061 114.679 241.051 130.748 250.934 132.59C250.934 132.59 251.938 141.294 249.426 144.642C249.426 144.642 241.783 155.044 268.647 135.486C267.047 131.246 268.773 121.96 268.773 121.96Z" fill="#FD8B66"/>
<path d="M253.698 108.443C253.968 108.432 254.224 108.317 254.412 108.122C254.599 107.927 254.704 107.667 254.704 107.397C254.704 107.126 254.599 106.866 254.412 106.671C254.224 106.476 253.968 106.361 253.698 106.35C253.427 106.361 253.171 106.476 252.984 106.671C252.796 106.866 252.691 107.126 252.691 107.397C252.691 107.667 252.796 107.927 252.984 108.122C253.171 108.317 253.427 108.432 253.698 108.443ZM269.778 124.055C272.473 124.055 272.478 119.87 269.778 119.87C267.084 119.87 267.079 124.055 269.778 124.055Z" fill="#D04719"/>
<path d="M258.472 115.561C258.795 115.561 259.105 115.433 259.333 115.205C259.562 114.976 259.69 114.667 259.69 114.344C259.69 114.021 259.562 113.711 259.333 113.483C259.105 113.254 258.795 113.126 258.472 113.126C258.149 113.126 257.839 113.254 257.61 113.483C257.382 113.711 257.254 114.021 257.254 114.344C257.254 114.667 257.382 114.976 257.61 115.205C257.839 115.433 258.149 115.561 258.472 115.561ZM247.667 114.641C247.99 114.641 248.3 114.512 248.528 114.284C248.757 114.056 248.885 113.746 248.885 113.423C248.885 113.1 248.757 112.791 248.528 112.562C248.3 112.334 247.99 112.206 247.667 112.206C247.344 112.206 247.034 112.334 246.805 112.562C246.577 112.791 246.449 113.1 246.449 113.423C246.449 113.746 246.577 114.056 246.805 114.284C247.034 114.512 247.344 114.641 247.667 114.641ZM250.264 108.208C250.079 108.208 249.9 108.146 249.757 108.031C248.067 106.68 245.401 107.72 245.374 107.731C245.175 107.807 244.955 107.801 244.76 107.716C244.565 107.631 244.412 107.473 244.332 107.276C244.253 107.079 244.253 106.859 244.334 106.663C244.415 106.467 244.57 106.31 244.766 106.226C244.91 106.168 248.334 104.816 250.771 106.762C250.903 106.867 250.999 107.01 251.046 107.172C251.092 107.334 251.087 107.506 251.031 107.665C250.976 107.824 250.872 107.962 250.734 108.059C250.597 108.156 250.432 108.209 250.264 108.208ZM262.328 109.737C262.144 109.737 261.965 109.675 261.822 109.56C260.119 108.198 257.468 109.248 257.44 109.259C257.341 109.3 257.235 109.321 257.128 109.321C257.021 109.32 256.915 109.299 256.816 109.257C256.717 109.216 256.628 109.155 256.553 109.079C256.477 109.003 256.418 108.913 256.378 108.813C256.338 108.714 256.317 108.608 256.318 108.501C256.32 108.394 256.342 108.288 256.384 108.19C256.426 108.091 256.487 108.002 256.564 107.927C256.641 107.853 256.732 107.794 256.831 107.755C256.975 107.698 260.398 106.343 262.836 108.292C262.967 108.397 263.062 108.54 263.109 108.702C263.155 108.863 263.15 109.035 263.094 109.194C263.038 109.352 262.935 109.49 262.798 109.587C262.66 109.684 262.496 109.737 262.328 109.737L262.328 109.737Z" fill="#5E1212"/>
<path d="M252.19 110.745C252.08 111.755 251.882 112.754 251.598 113.73C251.328 114.678 251.024 115.616 250.684 116.541L250.19 117.896L249.974 118.537L249.905 118.795C249.897 118.813 249.896 118.852 249.879 118.805C249.843 118.726 249.836 118.732 249.831 118.735C249.792 118.753 249.922 118.881 250.099 118.964C250.298 119.062 250.508 119.137 250.724 119.189C251.183 119.326 251.678 119.412 252.19 119.533C251.712 119.762 251.201 119.914 250.675 119.984C250.394 120.019 250.109 120.023 249.827 119.994C249.441 119.964 249.081 119.791 248.816 119.51C248.712 119.397 248.636 119.261 248.596 119.113C248.565 118.996 248.547 118.875 248.543 118.753C248.54 118.593 248.548 118.432 248.567 118.272C248.599 118.001 248.647 117.731 248.711 117.465C248.832 116.965 248.981 116.472 249.157 115.989C249.504 115.041 249.927 114.123 250.422 113.243C250.915 112.346 251.508 111.508 252.19 110.745ZM253.698 123.3C254.096 123.03 254.389 122.818 254.661 122.605C254.931 122.399 255.165 122.205 255.406 122.008L256.155 121.366C256.465 121.095 256.792 120.846 257.136 120.621C257.256 121.064 257.235 121.532 257.077 121.963C256.92 122.396 256.652 122.78 256.301 123.079C255.937 123.38 255.496 123.573 255.028 123.635C254.795 123.671 254.557 123.66 254.329 123.602C254.1 123.545 253.886 123.442 253.698 123.3ZM250.934 132.59C250.934 132.59 256.796 133.51 260.984 130.414C260.984 130.414 257.52 135.852 251.128 136.941C251.25 135.489 251.185 134.026 250.934 132.59Z" fill="#D04719"/>
<path d="M279.913 159.541C278.071 158.368 277.735 152.007 277.233 146.483C276.73 140.959 268.69 135.603 268.69 135.603C268.675 135.565 268.662 135.524 268.647 135.486C249.792 149.213 247.936 148.18 248.505 146.346C248.505 146.346 240.632 157.782 237.491 162.678C234.351 167.574 232.027 174.103 239.658 183.143V191.428H271.035V188.29L286.361 183.394L280.651 159.793C280.392 159.753 280.142 159.668 279.913 159.541Z" fill="#E6560F"/>
<path d="M239.853 176.549C238.188 165.412 246.83 162.57 246.918 162.542L247.162 163.317C246.831 163.421 239.096 165.996 240.657 176.429L239.853 176.549Z" fill="black"/>
<path d="M240.716 191.428L240.045 197.455H269.904V191.428H240.716ZM283.782 184.218C283.782 184.218 291.471 194.526 293.146 201.724C294.822 208.922 305.039 233.528 305.039 233.528C305.039 233.528 314.629 238.633 314.629 241.145V242.651C314.629 242.651 315.445 250.247 314.629 250.373C314.629 250.373 311.804 251.755 303.448 245.978C301.586 243.942 300.116 241.58 299.113 239.011C297.857 235.307 279.327 202.854 279.327 202.854L271.035 188.29L283.782 184.218Z" fill="#FD8B66"/>
<path d="M286.361 194.442C286.865 194.49 287.35 194.656 287.778 194.927C288.18 195.175 288.536 195.492 288.83 195.863C289.14 196.243 289.368 196.683 289.501 197.156C289.587 197.41 289.62 197.679 289.598 197.946C289.577 198.213 289.502 198.473 289.377 198.711C288.999 198.309 288.683 198.065 288.383 197.772C288.089 197.49 287.813 197.189 287.558 196.871C287.294 196.537 287.06 196.181 286.858 195.806C286.627 195.378 286.459 194.919 286.361 194.442ZM311.175 246.669C311.853 246.577 312.543 246.636 313.195 246.843C313.856 247.023 314.468 247.349 314.986 247.796C314.308 247.89 313.617 247.831 312.965 247.622C312.304 247.441 311.694 247.115 311.175 246.669ZM311.865 243.53C312.393 243.411 312.945 243.442 313.457 243.619C313.976 243.773 314.441 244.072 314.799 244.479C314.27 244.6 313.718 244.569 313.207 244.39C312.688 244.233 312.223 243.936 311.865 243.53ZM311.865 240.706C312.367 240.586 312.893 240.617 313.378 240.792C313.87 240.948 314.306 241.245 314.629 241.647C314.127 241.768 313.6 241.738 313.116 241.56C312.624 241.404 312.189 241.106 311.865 240.706Z" fill="#D04719"/>
<path d="M395.494 263.492L358.642 323.419L316.012 287.596L347.094 240.706L395.494 263.492Z" fill="#FFB957"/>
<path d="M359.689 275.129L354.213 284.032L347.88 278.71L352.498 271.744L359.689 275.129ZM324.727 274.447C323.152 272.532 321.714 270.533 320.323 268.504C318.924 266.481 317.606 264.407 316.303 262.324C315.027 260.225 313.767 258.116 312.589 255.957C311.401 253.803 310.262 251.618 309.262 249.35C310.837 251.265 312.278 253.263 313.668 255.292C315.067 257.316 316.385 259.389 317.685 261.474C318.961 263.573 320.219 265.683 321.399 267.843C322.585 269.997 323.725 272.18 324.727 274.447ZM314.629 241.145C316.583 241.479 318.518 241.919 320.424 242.463C322.33 242.978 324.204 243.583 326.073 244.206C327.932 244.858 329.785 245.529 331.606 246.289C333.446 247.028 335.244 247.867 336.991 248.804C335.036 248.471 333.101 248.032 331.195 247.488C329.29 246.972 327.415 246.366 325.547 245.741C323.688 245.088 321.837 244.416 320.015 243.656C318.175 242.917 316.377 242.079 314.629 241.145ZM325.433 270.146C323.993 268.667 322.631 267.114 321.353 265.494C320.059 263.897 318.844 262.244 317.641 260.581C316.465 258.901 315.305 257.208 314.222 255.46C313.112 253.72 312.094 251.923 311.174 250.076C312.616 251.554 313.978 253.106 315.256 254.727C316.549 256.324 317.766 257.977 318.965 259.642C320.141 261.324 321.301 263.016 322.383 264.763C323.493 266.503 324.511 268.3 325.433 270.146ZM312.515 238.357C315.202 238.633 317.853 239.065 320.492 239.551C323.132 240.028 325.752 240.598 328.368 241.184C330.976 241.801 333.58 242.438 336.163 243.167C338.748 243.885 341.32 244.66 343.855 245.592C341.167 245.318 338.516 244.887 335.878 244.4C333.237 243.924 330.617 243.354 328.002 242.766C325.394 242.147 322.79 241.51 320.207 240.781C317.623 240.062 315.05 239.288 312.514 238.358L312.515 238.357ZM233.1 234.869C240.118 222.804 246.366 210.308 251.805 197.455H240.045L233.1 234.869Z" fill="#376F92"/>
<path d="M240.716 191.428L240.045 197.455H251.805C252.63 195.459 253.422 193.45 254.181 191.428L240.716 191.428Z" fill="#376F92"/>
<path d="M237.491 162.678C234.351 167.574 232.027 174.103 239.658 183.143V191.428L254.181 191.428C256.326 187.085 257.804 182.443 258.564 177.659C259.81 169.681 258.327 165.484 258.859 155.778C259.139 150.753 259.868 145.762 261.038 140.866C249.275 148.872 248.024 147.896 248.505 146.346C248.505 146.346 240.632 157.782 237.491 162.678Z" fill="#376F92"/>
<path d="M260.984 148.241C259.895 149.633 259.308 151.352 259.32 153.119C259.268 154.873 259.393 156.628 259.694 158.357C260.303 161.844 261.144 165.287 262.21 168.663C263.242 172.06 264.392 175.431 265.6 178.786C266.791 182.147 268.039 185.496 269.3 188.847L269.098 188.761L271.035 188.29L269.078 189.128L269.001 188.989C265.545 182.672 262.753 176.016 260.667 169.125C259.59 165.666 258.856 162.109 258.474 158.506C258.279 156.687 258.308 154.85 258.56 153.037C258.745 151.193 259.609 149.484 260.984 148.241Z" fill="#AF2500"/>
<path d="M258.472 151.014C258.472 151.014 268.821 139.485 276.814 144.685C276.814 144.685 274.015 136.388 268.69 135.603L261.037 140.866L258.472 151.014Z" fill="#376F92"/>
<path d="M293.328 152.258C282.707 130.665 268.69 135.603 268.69 135.603C272.471 140.195 277.053 144.231 278.901 149.883C280.3 154.162 279.892 160.61 282.167 168.213C284.585 176.288 286.642 176 292.623 188.071C300.386 203.74 305.055 213.695 305.709 220.555C306.212 225.829 307.719 227.083 311.174 225.577C314.629 224.07 319.528 229.092 323.298 224.07C326.748 219.473 330.617 222.029 331.247 222.494C316.932 211.868 303.928 173.806 293.328 152.258ZM331.247 222.494C331.277 222.517 331.308 222.542 331.338 222.564C331.338 222.564 331.305 222.537 331.247 222.494Z" fill="#376F92"/>
</svg>
